M48
;DRILL file {KiCad 4.0.6} date Monday, August 21, 2017 'PMt' 07:15:01 PM
;FORMAT={2:4/ absolute / inch / suppress leading zeros}
FMAT,2
INCH,TZ
T1C0.016
T2C0.028
T3C0.039
T4C0.040
T5C0.134
%
G90
G05
M72
T1
X42488Y-39402
X42520Y-28110
X42756Y-27480
X42756Y-39902
X43150Y-40472
X46220Y-37244
X46457Y-41969
X49606Y-20709
X51181Y-22047
X52362Y-22047
X54921Y-24508
X55591Y-37244
X57953Y-39370
X58760Y-40453
X58898Y-41890
X61571Y-45358
X61614Y-46020
X61732Y-38189
X61890Y-40079
X62126Y-43386
X62205Y-38110
X62547Y-39173
X62551Y-42606
X62551Y-43181
X62677Y-36614
X62800Y-37200
X62800Y-37700
X63050Y-41200
X63327Y-36413
X63550Y-34700
X63852Y-47522
X64050Y-29700
X64050Y-30200
X65034Y-31200
X65050Y-37450
X65248Y-42595
X65300Y-28700
X65300Y-36950
X65550Y-38200
X65800Y-37700
X66328Y-37011
X66471Y-36234
X66535Y-33386
X66550Y-37450
X66623Y-36816
X66800Y-28450
X67008Y-34409
X67050Y-38200
X67087Y-33543
X67300Y-40450
X67382Y-42531
X67550Y-38950
X67550Y-39450
X67550Y-41950
X68300Y-28700
X68300Y-35200
X68550Y-36450
X68654Y-35200
X69024Y-38505
X69050Y-28700
X69050Y-36450
X69301Y-28951
X69800Y-36950
X70196Y-37364
X70200Y-37884
X72300Y-26700
X72800Y-43450
X74800Y-30450
X75800Y-26700
X76219Y-45591
T2
X44776Y-37402
X44776Y-37902
X44776Y-38402
X44776Y-38902
X44776Y-39402
X44776Y-39902
X44776Y-40402
X44776Y-40902
X44776Y-41402
X44776Y-41902
X45276Y-37402
X45276Y-37902
X45276Y-38402
X45276Y-38902
X45276Y-39402
X45276Y-39902
X45276Y-40402
X45276Y-40902
X45276Y-41402
X45276Y-41902
X56587Y-37402
X56587Y-37902
X56587Y-38402
X56587Y-38902
X56587Y-39402
X56587Y-39902
X56587Y-40402
X56587Y-40902
X56587Y-41402
X56587Y-41902
X57087Y-37402
X57087Y-37902
X57087Y-38402
X57087Y-38902
X57087Y-39402
X57087Y-39902
X57087Y-40402
X57087Y-40902
X57087Y-41402
X57087Y-41902
T3
X46800Y-22950
X46800Y-23950
X47800Y-22950
X47800Y-23950
X48800Y-22950
X48800Y-23950
X49800Y-22950
X49800Y-23950
X50800Y-22950
X50800Y-23950
X51800Y-22950
X51800Y-23950
X52800Y-22950
X52800Y-23950
X53800Y-22950
X53800Y-23950
X61300Y-22950
X61300Y-23950
X61300Y-48700
X61300Y-49700
X62300Y-22950
X62300Y-23950
X62300Y-48700
X62300Y-49700
X63300Y-22950
X63300Y-23950
X63300Y-48700
X63300Y-49700
X64300Y-22950
X64300Y-23950
X64300Y-48700
X64300Y-49700
X65300Y-22950
X65300Y-23950
X65300Y-48700
X65300Y-49700
X66300Y-22950
X66300Y-23950
X66300Y-48700
X66300Y-49700
X67300Y-22950
X67300Y-23950
X67300Y-48700
X67300Y-49700
X68300Y-22950
X68300Y-23950
X68300Y-48700
X68300Y-49700
X69300Y-22950
X69300Y-23950
X69300Y-48700
X69300Y-49700
X70300Y-22950
X70300Y-23950
X70300Y-48700
X70300Y-49700
X73550Y-43450
X73550Y-44450
X73550Y-45450
X73550Y-46450
X74550Y-43450
X74550Y-44450
X74550Y-45450
X74550Y-46450
T4
X73550Y-35950
X73550Y-36950
X73550Y-37950
X74550Y-35950
X74550Y-36950
X74550Y-37950
T5
X41732Y-21378
X41732Y-51063
X75591Y-21378
X75591Y-51063
T0
M30
