G04 #@! TF.FileFunction,Copper,L2,Inr,Plane*
%FSLAX46Y46*%
G04 Gerber Fmt 4.6, Leading zero omitted, Abs format (unit mm)*
G04 Created by KiCad (PCBNEW 4.0.6) date Friday, August 25, 2017 'AMt' 01:12:18 AM*
%MOMM*%
%LPD*%
G01*
G04 APERTURE LIST*
%ADD10C,0.100000*%
%ADD11R,1.700000X1.700000*%
%ADD12O,1.700000X1.700000*%
%ADD13R,1.727200X1.727200*%
%ADD14O,1.727200X1.727200*%
%ADD15R,1.100000X1.100000*%
%ADD16O,1.100000X1.100000*%
%ADD17C,4.400000*%
%ADD18C,0.700000*%
%ADD19C,0.254000*%
G04 APERTURE END LIST*
D10*
D11*
X155702000Y-123698000D03*
D12*
X155702000Y-126238000D03*
X158242000Y-123698000D03*
X158242000Y-126238000D03*
X160782000Y-123698000D03*
X160782000Y-126238000D03*
X163322000Y-123698000D03*
X163322000Y-126238000D03*
X165862000Y-123698000D03*
X165862000Y-126238000D03*
X168402000Y-123698000D03*
X168402000Y-126238000D03*
X170942000Y-123698000D03*
X170942000Y-126238000D03*
X173482000Y-123698000D03*
X173482000Y-126238000D03*
X176022000Y-123698000D03*
X176022000Y-126238000D03*
X178562000Y-123698000D03*
X178562000Y-126238000D03*
D11*
X155702000Y-58293000D03*
D12*
X155702000Y-60833000D03*
X158242000Y-58293000D03*
X158242000Y-60833000D03*
X160782000Y-58293000D03*
X160782000Y-60833000D03*
X163322000Y-58293000D03*
X163322000Y-60833000D03*
X165862000Y-58293000D03*
X165862000Y-60833000D03*
X168402000Y-58293000D03*
X168402000Y-60833000D03*
X170942000Y-58293000D03*
X170942000Y-60833000D03*
X173482000Y-58293000D03*
X173482000Y-60833000D03*
X176022000Y-58293000D03*
X176022000Y-60833000D03*
X178562000Y-58293000D03*
X178562000Y-60833000D03*
D13*
X189357000Y-96393000D03*
D14*
X186817000Y-96393000D03*
X189357000Y-93853000D03*
X186817000Y-93853000D03*
X189357000Y-91313000D03*
X186817000Y-91313000D03*
D11*
X186817000Y-117983000D03*
D12*
X189357000Y-117983000D03*
X186817000Y-115443000D03*
X189357000Y-115443000D03*
X186817000Y-112903000D03*
X189357000Y-112903000D03*
X186817000Y-110363000D03*
X189357000Y-110363000D03*
D11*
X118872000Y-58293000D03*
D12*
X118872000Y-60833000D03*
X121412000Y-58293000D03*
X121412000Y-60833000D03*
X123952000Y-58293000D03*
X123952000Y-60833000D03*
X126492000Y-58293000D03*
X126492000Y-60833000D03*
X129032000Y-58293000D03*
X129032000Y-60833000D03*
X131572000Y-58293000D03*
X131572000Y-60833000D03*
X134112000Y-58293000D03*
X134112000Y-60833000D03*
X136652000Y-58293000D03*
X136652000Y-60833000D03*
D15*
X145000000Y-95000000D03*
D16*
X143730000Y-95000000D03*
X145000000Y-96270000D03*
X143730000Y-96270000D03*
X145000000Y-97540000D03*
X143730000Y-97540000D03*
X145000000Y-98810000D03*
X143730000Y-98810000D03*
X145000000Y-100080000D03*
X143730000Y-100080000D03*
X145000000Y-101350000D03*
X143730000Y-101350000D03*
X145000000Y-102620000D03*
X143730000Y-102620000D03*
X145000000Y-103890000D03*
X143730000Y-103890000D03*
X145000000Y-105160000D03*
X143730000Y-105160000D03*
X145000000Y-106430000D03*
X143730000Y-106430000D03*
D15*
X115000000Y-95000000D03*
D16*
X113730000Y-95000000D03*
X115000000Y-96270000D03*
X113730000Y-96270000D03*
X115000000Y-97540000D03*
X113730000Y-97540000D03*
X115000000Y-98810000D03*
X113730000Y-98810000D03*
X115000000Y-100080000D03*
X113730000Y-100080000D03*
X115000000Y-101350000D03*
X113730000Y-101350000D03*
X115000000Y-102620000D03*
X113730000Y-102620000D03*
X115000000Y-103890000D03*
X113730000Y-103890000D03*
X115000000Y-105160000D03*
X113730000Y-105160000D03*
X115000000Y-106430000D03*
X113730000Y-106430000D03*
D17*
X192000000Y-54300000D03*
X192000000Y-129700000D03*
X106000000Y-129700000D03*
X106000000Y-54300000D03*
D18*
X178309229Y-96224766D03*
X178296946Y-94905103D03*
X118000000Y-106600000D03*
X141200000Y-94600000D03*
X117400000Y-94600000D03*
X169672000Y-72263000D03*
X162687000Y-75438000D03*
X159512000Y-95758000D03*
X177292000Y-93853000D03*
X192532000Y-67818000D03*
X189992000Y-77343000D03*
X160147000Y-104648000D03*
X171577000Y-106553000D03*
X175320798Y-97803445D03*
X147200000Y-100000000D03*
X161417000Y-88138000D03*
X162687000Y-76708000D03*
X159512000Y-94488000D03*
X175387000Y-92583000D03*
X183642000Y-67818000D03*
X174382003Y-89408000D03*
X174117000Y-92583000D03*
X171577000Y-100203000D03*
X162185202Y-120705202D03*
X169037000Y-95123000D03*
X170307000Y-97028000D03*
X168836340Y-92034362D03*
X193597265Y-115801572D03*
X169223476Y-93512869D03*
X168472157Y-94008389D03*
X160850000Y-92490000D03*
X158870000Y-99500000D03*
X158880000Y-108220000D03*
X158880000Y-109680000D03*
X156390000Y-115210000D03*
X156500000Y-116890000D03*
X165730477Y-108192092D03*
X171150000Y-108030000D03*
X184912000Y-110363000D03*
X170942000Y-102743000D03*
X165227000Y-95123000D03*
X165186999Y-79248000D03*
X167132000Y-95758000D03*
X165862000Y-72898000D03*
X165862000Y-93853000D03*
X166497000Y-97028000D03*
X169000000Y-84800000D03*
X156800000Y-97000000D03*
X157200000Y-101800000D03*
X176023397Y-73534397D03*
X175387000Y-72898000D03*
X171577000Y-98933000D03*
X173482000Y-89408000D03*
X173482000Y-72898000D03*
X108000000Y-71400000D03*
X107920000Y-100080000D03*
X158000000Y-96800000D03*
X157800000Y-110200000D03*
X108600000Y-69800000D03*
X108600000Y-101350000D03*
X109600000Y-102800000D03*
X126000000Y-52600000D03*
X139500000Y-62250000D03*
X170400000Y-85200000D03*
X170200000Y-87400000D03*
X130000000Y-56000000D03*
X133000000Y-56000000D03*
X149250000Y-102750000D03*
X159200000Y-93000000D03*
X149600000Y-106400000D03*
D19*
G36*
X197290000Y-133290000D02*
X100710000Y-133290000D01*
X100710000Y-130261442D01*
X103164509Y-130261442D01*
X103595202Y-131303801D01*
X104392005Y-132101995D01*
X105433610Y-132534507D01*
X106561442Y-132535491D01*
X107603801Y-132104798D01*
X108401995Y-131307995D01*
X108834507Y-130266390D01*
X108834511Y-130261442D01*
X189164509Y-130261442D01*
X189595202Y-131303801D01*
X190392005Y-132101995D01*
X191433610Y-132534507D01*
X192561442Y-132535491D01*
X193603801Y-132104798D01*
X194401995Y-131307995D01*
X194834507Y-130266390D01*
X194835491Y-129138558D01*
X194404798Y-128096199D01*
X193607995Y-127298005D01*
X192566390Y-126865493D01*
X191438558Y-126864509D01*
X190396199Y-127295202D01*
X189598005Y-128092005D01*
X189165493Y-129133610D01*
X189164509Y-130261442D01*
X108834511Y-130261442D01*
X108835491Y-129138558D01*
X108404798Y-128096199D01*
X107607995Y-127298005D01*
X106566390Y-126865493D01*
X105438558Y-126864509D01*
X104396199Y-127295202D01*
X103598005Y-128092005D01*
X103165493Y-129133610D01*
X103164509Y-130261442D01*
X100710000Y-130261442D01*
X100710000Y-122848000D01*
X154204560Y-122848000D01*
X154204560Y-124548000D01*
X154248838Y-124783317D01*
X154387910Y-124999441D01*
X154600110Y-125144431D01*
X154656454Y-125155841D01*
X154651946Y-125158853D01*
X154330039Y-125640622D01*
X154217000Y-126208907D01*
X154217000Y-126267093D01*
X154330039Y-126835378D01*
X154651946Y-127317147D01*
X155133715Y-127639054D01*
X155702000Y-127752093D01*
X156270285Y-127639054D01*
X156752054Y-127317147D01*
X156972000Y-126987974D01*
X157191946Y-127317147D01*
X157673715Y-127639054D01*
X158242000Y-127752093D01*
X158810285Y-127639054D01*
X159292054Y-127317147D01*
X159512000Y-126987974D01*
X159731946Y-127317147D01*
X160213715Y-127639054D01*
X160782000Y-127752093D01*
X161350285Y-127639054D01*
X161832054Y-127317147D01*
X162052000Y-126987974D01*
X162271946Y-127317147D01*
X162753715Y-127639054D01*
X163322000Y-127752093D01*
X163890285Y-127639054D01*
X164372054Y-127317147D01*
X164592000Y-126987974D01*
X164811946Y-127317147D01*
X165293715Y-127639054D01*
X165862000Y-127752093D01*
X166430285Y-127639054D01*
X166912054Y-127317147D01*
X167132000Y-126987974D01*
X167351946Y-127317147D01*
X167833715Y-127639054D01*
X168402000Y-127752093D01*
X168970285Y-127639054D01*
X169452054Y-127317147D01*
X169672000Y-126987974D01*
X169891946Y-127317147D01*
X170373715Y-127639054D01*
X170942000Y-127752093D01*
X171510285Y-127639054D01*
X171992054Y-127317147D01*
X172212000Y-126987974D01*
X172431946Y-127317147D01*
X172913715Y-127639054D01*
X173482000Y-127752093D01*
X174050285Y-127639054D01*
X174532054Y-127317147D01*
X174752000Y-126987974D01*
X174971946Y-127317147D01*
X175453715Y-127639054D01*
X176022000Y-127752093D01*
X176590285Y-127639054D01*
X177072054Y-127317147D01*
X177292000Y-126987974D01*
X177511946Y-127317147D01*
X177993715Y-127639054D01*
X178562000Y-127752093D01*
X179130285Y-127639054D01*
X179612054Y-127317147D01*
X179933961Y-126835378D01*
X180047000Y-126267093D01*
X180047000Y-126208907D01*
X179933961Y-125640622D01*
X179612054Y-125158853D01*
X179326422Y-124968000D01*
X179612054Y-124777147D01*
X179933961Y-124295378D01*
X180047000Y-123727093D01*
X180047000Y-123668907D01*
X179933961Y-123100622D01*
X179612054Y-122618853D01*
X179130285Y-122296946D01*
X178562000Y-122183907D01*
X177993715Y-122296946D01*
X177511946Y-122618853D01*
X177292000Y-122948026D01*
X177072054Y-122618853D01*
X176590285Y-122296946D01*
X176022000Y-122183907D01*
X175453715Y-122296946D01*
X174971946Y-122618853D01*
X174752000Y-122948026D01*
X174532054Y-122618853D01*
X174050285Y-122296946D01*
X173482000Y-122183907D01*
X172913715Y-122296946D01*
X172431946Y-122618853D01*
X172212000Y-122948026D01*
X171992054Y-122618853D01*
X171510285Y-122296946D01*
X170942000Y-122183907D01*
X170373715Y-122296946D01*
X169891946Y-122618853D01*
X169672000Y-122948026D01*
X169452054Y-122618853D01*
X168970285Y-122296946D01*
X168402000Y-122183907D01*
X167833715Y-122296946D01*
X167351946Y-122618853D01*
X167132000Y-122948026D01*
X166912054Y-122618853D01*
X166430285Y-122296946D01*
X165862000Y-122183907D01*
X165293715Y-122296946D01*
X164811946Y-122618853D01*
X164592000Y-122948026D01*
X164372054Y-122618853D01*
X163890285Y-122296946D01*
X163322000Y-122183907D01*
X162753715Y-122296946D01*
X162271946Y-122618853D01*
X162052000Y-122948026D01*
X161832054Y-122618853D01*
X161350285Y-122296946D01*
X160782000Y-122183907D01*
X160213715Y-122296946D01*
X159731946Y-122618853D01*
X159512000Y-122948026D01*
X159292054Y-122618853D01*
X158810285Y-122296946D01*
X158242000Y-122183907D01*
X157673715Y-122296946D01*
X157191946Y-122618853D01*
X157164150Y-122660452D01*
X157155162Y-122612683D01*
X157016090Y-122396559D01*
X156803890Y-122251569D01*
X156552000Y-122200560D01*
X154852000Y-122200560D01*
X154616683Y-122244838D01*
X154400559Y-122383910D01*
X154255569Y-122596110D01*
X154204560Y-122848000D01*
X100710000Y-122848000D01*
X100710000Y-120900271D01*
X161200032Y-120900271D01*
X161349673Y-121262431D01*
X161626516Y-121539757D01*
X161988414Y-121690030D01*
X162380271Y-121690372D01*
X162742431Y-121540731D01*
X163019757Y-121263888D01*
X163170030Y-120901990D01*
X163170372Y-120510133D01*
X163020731Y-120147973D01*
X162743888Y-119870647D01*
X162381990Y-119720374D01*
X161990133Y-119720032D01*
X161627973Y-119869673D01*
X161350647Y-120146516D01*
X161200374Y-120508414D01*
X161200032Y-120900271D01*
X100710000Y-120900271D01*
X100710000Y-115405069D01*
X155404830Y-115405069D01*
X155554471Y-115767229D01*
X155831314Y-116044555D01*
X155917044Y-116080153D01*
X155665445Y-116331314D01*
X155515172Y-116693212D01*
X155514830Y-117085069D01*
X155664471Y-117447229D01*
X155941314Y-117724555D01*
X156303212Y-117874828D01*
X156695069Y-117875170D01*
X157057229Y-117725529D01*
X157334555Y-117448686D01*
X157484828Y-117086788D01*
X157485170Y-116694931D01*
X157335529Y-116332771D01*
X157058686Y-116055445D01*
X156972956Y-116019847D01*
X157224555Y-115768686D01*
X157374828Y-115406788D01*
X157375170Y-115014931D01*
X157225529Y-114652771D01*
X156948686Y-114375445D01*
X156586788Y-114225172D01*
X156194931Y-114224830D01*
X155832771Y-114374471D01*
X155555445Y-114651314D01*
X155405172Y-115013212D01*
X155404830Y-115405069D01*
X100710000Y-115405069D01*
X100710000Y-110395069D01*
X156814830Y-110395069D01*
X156964471Y-110757229D01*
X157241314Y-111034555D01*
X157603212Y-111184828D01*
X157995069Y-111185170D01*
X158357229Y-111035529D01*
X158634555Y-110758686D01*
X158674952Y-110661398D01*
X158683212Y-110664828D01*
X159075069Y-110665170D01*
X159334274Y-110558069D01*
X183926830Y-110558069D01*
X184076471Y-110920229D01*
X184353314Y-111197555D01*
X184715212Y-111347828D01*
X185107069Y-111348170D01*
X185469229Y-111198529D01*
X185544383Y-111123506D01*
X185737853Y-111413054D01*
X186067026Y-111633000D01*
X185737853Y-111852946D01*
X185415946Y-112334715D01*
X185302907Y-112903000D01*
X185415946Y-113471285D01*
X185737853Y-113953054D01*
X186067026Y-114173000D01*
X185737853Y-114392946D01*
X185415946Y-114874715D01*
X185302907Y-115443000D01*
X185415946Y-116011285D01*
X185737853Y-116493054D01*
X185779452Y-116520850D01*
X185731683Y-116529838D01*
X185515559Y-116668910D01*
X185370569Y-116881110D01*
X185319560Y-117133000D01*
X185319560Y-118833000D01*
X185363838Y-119068317D01*
X185502910Y-119284441D01*
X185715110Y-119429431D01*
X185967000Y-119480440D01*
X187667000Y-119480440D01*
X187902317Y-119436162D01*
X188118441Y-119297090D01*
X188263431Y-119084890D01*
X188274841Y-119028546D01*
X188277853Y-119033054D01*
X188759622Y-119354961D01*
X189327907Y-119468000D01*
X189386093Y-119468000D01*
X189954378Y-119354961D01*
X190436147Y-119033054D01*
X190758054Y-118551285D01*
X190871093Y-117983000D01*
X190758054Y-117414715D01*
X190436147Y-116932946D01*
X190106974Y-116713000D01*
X190436147Y-116493054D01*
X190758054Y-116011285D01*
X190760966Y-115996641D01*
X192612095Y-115996641D01*
X192761736Y-116358801D01*
X193038579Y-116636127D01*
X193400477Y-116786400D01*
X193792334Y-116786742D01*
X194154494Y-116637101D01*
X194431820Y-116360258D01*
X194582093Y-115998360D01*
X194582435Y-115606503D01*
X194432794Y-115244343D01*
X194155951Y-114967017D01*
X193794053Y-114816744D01*
X193402196Y-114816402D01*
X193040036Y-114966043D01*
X192762710Y-115242886D01*
X192612437Y-115604784D01*
X192612095Y-115996641D01*
X190760966Y-115996641D01*
X190871093Y-115443000D01*
X190758054Y-114874715D01*
X190436147Y-114392946D01*
X190106974Y-114173000D01*
X190436147Y-113953054D01*
X190758054Y-113471285D01*
X190871093Y-112903000D01*
X190758054Y-112334715D01*
X190436147Y-111852946D01*
X190106974Y-111633000D01*
X190436147Y-111413054D01*
X190758054Y-110931285D01*
X190871093Y-110363000D01*
X190758054Y-109794715D01*
X190436147Y-109312946D01*
X189954378Y-108991039D01*
X189386093Y-108878000D01*
X189327907Y-108878000D01*
X188759622Y-108991039D01*
X188277853Y-109312946D01*
X188087000Y-109598578D01*
X187896147Y-109312946D01*
X187414378Y-108991039D01*
X186846093Y-108878000D01*
X186787907Y-108878000D01*
X186219622Y-108991039D01*
X185737853Y-109312946D01*
X185544473Y-109602361D01*
X185470686Y-109528445D01*
X185108788Y-109378172D01*
X184716931Y-109377830D01*
X184354771Y-109527471D01*
X184077445Y-109804314D01*
X183927172Y-110166212D01*
X183926830Y-110558069D01*
X159334274Y-110558069D01*
X159437229Y-110515529D01*
X159714555Y-110238686D01*
X159864828Y-109876788D01*
X159865170Y-109484931D01*
X159715529Y-109122771D01*
X159543001Y-108949942D01*
X159714555Y-108778686D01*
X159864828Y-108416788D01*
X159864853Y-108387161D01*
X164745307Y-108387161D01*
X164894948Y-108749321D01*
X165171791Y-109026647D01*
X165533689Y-109176920D01*
X165925546Y-109177262D01*
X166287706Y-109027621D01*
X166565032Y-108750778D01*
X166715305Y-108388880D01*
X166715447Y-108225069D01*
X170164830Y-108225069D01*
X170314471Y-108587229D01*
X170591314Y-108864555D01*
X170953212Y-109014828D01*
X171345069Y-109015170D01*
X171707229Y-108865529D01*
X171984555Y-108588686D01*
X172134828Y-108226788D01*
X172135170Y-107834931D01*
X171985529Y-107472771D01*
X171708686Y-107195445D01*
X171346788Y-107045172D01*
X170954931Y-107044830D01*
X170592771Y-107194471D01*
X170315445Y-107471314D01*
X170165172Y-107833212D01*
X170164830Y-108225069D01*
X166715447Y-108225069D01*
X166715647Y-107997023D01*
X166566006Y-107634863D01*
X166289163Y-107357537D01*
X165927265Y-107207264D01*
X165535408Y-107206922D01*
X165173248Y-107356563D01*
X164895922Y-107633406D01*
X164745649Y-107995304D01*
X164745307Y-108387161D01*
X159864853Y-108387161D01*
X159865170Y-108024931D01*
X159715529Y-107662771D01*
X159438686Y-107385445D01*
X159076788Y-107235172D01*
X158684931Y-107234830D01*
X158322771Y-107384471D01*
X158045445Y-107661314D01*
X157895172Y-108023212D01*
X157894830Y-108415069D01*
X158044471Y-108777229D01*
X158216999Y-108950058D01*
X158045445Y-109121314D01*
X158005048Y-109218602D01*
X157996788Y-109215172D01*
X157604931Y-109214830D01*
X157242771Y-109364471D01*
X156965445Y-109641314D01*
X156815172Y-110003212D01*
X156814830Y-110395069D01*
X100710000Y-110395069D01*
X100710000Y-100275069D01*
X106934830Y-100275069D01*
X107084471Y-100637229D01*
X107361314Y-100914555D01*
X107662364Y-101039562D01*
X107615172Y-101153212D01*
X107614830Y-101545069D01*
X107764471Y-101907229D01*
X108041314Y-102184555D01*
X108403212Y-102334828D01*
X108726497Y-102335110D01*
X108615172Y-102603212D01*
X108614830Y-102995069D01*
X108764471Y-103357229D01*
X109041314Y-103634555D01*
X109403212Y-103784828D01*
X109795069Y-103785170D01*
X110157229Y-103635529D01*
X110434555Y-103358686D01*
X110584828Y-102996788D01*
X110585170Y-102604931D01*
X110435529Y-102242771D01*
X110158686Y-101965445D01*
X109796788Y-101815172D01*
X109473503Y-101814890D01*
X109584828Y-101546788D01*
X109585170Y-101154931D01*
X109435529Y-100792771D01*
X109158686Y-100515445D01*
X108857636Y-100390438D01*
X108904828Y-100276788D01*
X108905170Y-99884931D01*
X108755529Y-99522771D01*
X108478686Y-99245445D01*
X108116788Y-99095172D01*
X107724931Y-99094830D01*
X107362771Y-99244471D01*
X107085445Y-99521314D01*
X106935172Y-99883212D01*
X106934830Y-100275069D01*
X100710000Y-100275069D01*
X100710000Y-95000000D01*
X112521784Y-95000000D01*
X112611987Y-95453480D01*
X112733274Y-95635000D01*
X112611987Y-95816520D01*
X112521784Y-96270000D01*
X112611987Y-96723480D01*
X112733274Y-96905000D01*
X112611987Y-97086520D01*
X112521784Y-97540000D01*
X112611987Y-97993480D01*
X112733274Y-98175000D01*
X112611987Y-98356520D01*
X112521784Y-98810000D01*
X112611987Y-99263480D01*
X112733274Y-99445000D01*
X112611987Y-99626520D01*
X112521784Y-100080000D01*
X112611987Y-100533480D01*
X112733274Y-100715000D01*
X112611987Y-100896520D01*
X112521784Y-101350000D01*
X112611987Y-101803480D01*
X112733274Y-101985000D01*
X112611987Y-102166520D01*
X112521784Y-102620000D01*
X112611987Y-103073480D01*
X112733274Y-103255000D01*
X112611987Y-103436520D01*
X112521784Y-103890000D01*
X112611987Y-104343480D01*
X112733274Y-104525000D01*
X112611987Y-104706520D01*
X112521784Y-105160000D01*
X112611987Y-105613480D01*
X112733274Y-105795000D01*
X112611987Y-105976520D01*
X112521784Y-106430000D01*
X112611987Y-106883480D01*
X112868862Y-107267922D01*
X113253304Y-107524797D01*
X113706784Y-107615000D01*
X113753216Y-107615000D01*
X114206696Y-107524797D01*
X114370738Y-107415188D01*
X114690255Y-107573814D01*
X114873000Y-107449437D01*
X114873000Y-106757862D01*
X114912954Y-106557000D01*
X115127000Y-106557000D01*
X115127000Y-107449437D01*
X115309745Y-107573814D01*
X115723886Y-107368212D01*
X116027822Y-107019776D01*
X116143803Y-106739744D01*
X116018361Y-106557000D01*
X115127000Y-106557000D01*
X114912954Y-106557000D01*
X114938216Y-106430000D01*
X114919023Y-106333511D01*
X114976784Y-106345000D01*
X115023216Y-106345000D01*
X115234364Y-106303000D01*
X116018361Y-106303000D01*
X116143803Y-106120256D01*
X116027822Y-105840224D01*
X115993103Y-105800422D01*
X116118013Y-105613480D01*
X116208216Y-105160000D01*
X116118013Y-104706520D01*
X115996726Y-104525000D01*
X116118013Y-104343480D01*
X116208216Y-103890000D01*
X116118013Y-103436520D01*
X115996726Y-103255000D01*
X116118013Y-103073480D01*
X116208216Y-102620000D01*
X116118013Y-102166520D01*
X115996726Y-101985000D01*
X116118013Y-101803480D01*
X116208216Y-101350000D01*
X116118013Y-100896520D01*
X115996726Y-100715000D01*
X116118013Y-100533480D01*
X116208216Y-100080000D01*
X116118013Y-99626520D01*
X115996726Y-99445000D01*
X116118013Y-99263480D01*
X116208216Y-98810000D01*
X116118013Y-98356520D01*
X115996726Y-98175000D01*
X116118013Y-97993480D01*
X116208216Y-97540000D01*
X116118013Y-97086520D01*
X115996726Y-96905000D01*
X116118013Y-96723480D01*
X116208216Y-96270000D01*
X142521784Y-96270000D01*
X142611987Y-96723480D01*
X142733274Y-96905000D01*
X142611987Y-97086520D01*
X142521784Y-97540000D01*
X142611987Y-97993480D01*
X142733274Y-98175000D01*
X142611987Y-98356520D01*
X142521784Y-98810000D01*
X142611987Y-99263480D01*
X142733274Y-99445000D01*
X142611987Y-99626520D01*
X142521784Y-100080000D01*
X142611987Y-100533480D01*
X142733274Y-100715000D01*
X142611987Y-100896520D01*
X142521784Y-101350000D01*
X142611987Y-101803480D01*
X142733274Y-101985000D01*
X142611987Y-102166520D01*
X142521784Y-102620000D01*
X142611987Y-103073480D01*
X142733274Y-103255000D01*
X142611987Y-103436520D01*
X142521784Y-103890000D01*
X142611987Y-104343480D01*
X142733274Y-104525000D01*
X142611987Y-104706520D01*
X142521784Y-105160000D01*
X142611987Y-105613480D01*
X142733274Y-105795000D01*
X142611987Y-105976520D01*
X142521784Y-106430000D01*
X142611987Y-106883480D01*
X142868862Y-107267922D01*
X143253304Y-107524797D01*
X143706784Y-107615000D01*
X143753216Y-107615000D01*
X144206696Y-107524797D01*
X144365000Y-107419022D01*
X144523304Y-107524797D01*
X144976784Y-107615000D01*
X145023216Y-107615000D01*
X145476696Y-107524797D01*
X145861138Y-107267922D01*
X146118013Y-106883480D01*
X146175381Y-106595069D01*
X148614830Y-106595069D01*
X148764471Y-106957229D01*
X149041314Y-107234555D01*
X149403212Y-107384828D01*
X149795069Y-107385170D01*
X150157229Y-107235529D01*
X150434555Y-106958686D01*
X150584828Y-106596788D01*
X150585170Y-106204931D01*
X150435529Y-105842771D01*
X150158686Y-105565445D01*
X149796788Y-105415172D01*
X149404931Y-105414830D01*
X149042771Y-105564471D01*
X148765445Y-105841314D01*
X148615172Y-106203212D01*
X148614830Y-106595069D01*
X146175381Y-106595069D01*
X146208216Y-106430000D01*
X146118013Y-105976520D01*
X145996726Y-105795000D01*
X146118013Y-105613480D01*
X146208216Y-105160000D01*
X146118013Y-104706520D01*
X145996726Y-104525000D01*
X146118013Y-104343480D01*
X146208216Y-103890000D01*
X146118013Y-103436520D01*
X145996726Y-103255000D01*
X146118013Y-103073480D01*
X146143555Y-102945069D01*
X148264830Y-102945069D01*
X148414471Y-103307229D01*
X148691314Y-103584555D01*
X149053212Y-103734828D01*
X149445069Y-103735170D01*
X149807229Y-103585529D01*
X150084555Y-103308686D01*
X150234828Y-102946788D01*
X150234835Y-102938069D01*
X169956830Y-102938069D01*
X170106471Y-103300229D01*
X170383314Y-103577555D01*
X170745212Y-103727828D01*
X171137069Y-103728170D01*
X171499229Y-103578529D01*
X171776555Y-103301686D01*
X171926828Y-102939788D01*
X171927170Y-102547931D01*
X171777529Y-102185771D01*
X171500686Y-101908445D01*
X171138788Y-101758172D01*
X170746931Y-101757830D01*
X170384771Y-101907471D01*
X170107445Y-102184314D01*
X169957172Y-102546212D01*
X169956830Y-102938069D01*
X150234835Y-102938069D01*
X150235170Y-102554931D01*
X150085529Y-102192771D01*
X149888172Y-101995069D01*
X156214830Y-101995069D01*
X156364471Y-102357229D01*
X156641314Y-102634555D01*
X157003212Y-102784828D01*
X157395069Y-102785170D01*
X157757229Y-102635529D01*
X158034555Y-102358686D01*
X158184828Y-101996788D01*
X158185170Y-101604931D01*
X158035529Y-101242771D01*
X157758686Y-100965445D01*
X157396788Y-100815172D01*
X157004931Y-100814830D01*
X156642771Y-100964471D01*
X156365445Y-101241314D01*
X156215172Y-101603212D01*
X156214830Y-101995069D01*
X149888172Y-101995069D01*
X149808686Y-101915445D01*
X149446788Y-101765172D01*
X149054931Y-101764830D01*
X148692771Y-101914471D01*
X148415445Y-102191314D01*
X148265172Y-102553212D01*
X148264830Y-102945069D01*
X146143555Y-102945069D01*
X146208216Y-102620000D01*
X146118013Y-102166520D01*
X145996726Y-101985000D01*
X146118013Y-101803480D01*
X146208216Y-101350000D01*
X146118013Y-100896520D01*
X145996726Y-100715000D01*
X146118013Y-100533480D01*
X146185327Y-100195069D01*
X146214830Y-100195069D01*
X146364471Y-100557229D01*
X146641314Y-100834555D01*
X147003212Y-100984828D01*
X147395069Y-100985170D01*
X147757229Y-100835529D01*
X148034555Y-100558686D01*
X148184828Y-100196788D01*
X148185170Y-99804931D01*
X148139777Y-99695069D01*
X157884830Y-99695069D01*
X158034471Y-100057229D01*
X158311314Y-100334555D01*
X158673212Y-100484828D01*
X159065069Y-100485170D01*
X159427229Y-100335529D01*
X159704555Y-100058686D01*
X159854828Y-99696788D01*
X159855170Y-99304931D01*
X159782093Y-99128069D01*
X170591830Y-99128069D01*
X170741471Y-99490229D01*
X170819000Y-99567893D01*
X170742445Y-99644314D01*
X170592172Y-100006212D01*
X170591830Y-100398069D01*
X170741471Y-100760229D01*
X171018314Y-101037555D01*
X171380212Y-101187828D01*
X171772069Y-101188170D01*
X172134229Y-101038529D01*
X172411555Y-100761686D01*
X172561828Y-100399788D01*
X172562170Y-100007931D01*
X172412529Y-99645771D01*
X172335000Y-99568107D01*
X172411555Y-99491686D01*
X172561828Y-99129788D01*
X172562170Y-98737931D01*
X172412529Y-98375771D01*
X172135686Y-98098445D01*
X171895026Y-97998514D01*
X174335628Y-97998514D01*
X174485269Y-98360674D01*
X174762112Y-98638000D01*
X175124010Y-98788273D01*
X175515867Y-98788615D01*
X175878027Y-98638974D01*
X176155353Y-98362131D01*
X176305626Y-98000233D01*
X176305968Y-97608376D01*
X176156327Y-97246216D01*
X175879484Y-96968890D01*
X175517586Y-96818617D01*
X175125729Y-96818275D01*
X174763569Y-96967916D01*
X174486243Y-97244759D01*
X174335970Y-97606657D01*
X174335628Y-97998514D01*
X171895026Y-97998514D01*
X171773788Y-97948172D01*
X171381931Y-97947830D01*
X171019771Y-98097471D01*
X170742445Y-98374314D01*
X170592172Y-98736212D01*
X170591830Y-99128069D01*
X159782093Y-99128069D01*
X159705529Y-98942771D01*
X159428686Y-98665445D01*
X159066788Y-98515172D01*
X158674931Y-98514830D01*
X158312771Y-98664471D01*
X158035445Y-98941314D01*
X157885172Y-99303212D01*
X157884830Y-99695069D01*
X148139777Y-99695069D01*
X148035529Y-99442771D01*
X147758686Y-99165445D01*
X147396788Y-99015172D01*
X147004931Y-99014830D01*
X146642771Y-99164471D01*
X146365445Y-99441314D01*
X146215172Y-99803212D01*
X146214830Y-100195069D01*
X146185327Y-100195069D01*
X146208216Y-100080000D01*
X146118013Y-99626520D01*
X145996726Y-99445000D01*
X146118013Y-99263480D01*
X146208216Y-98810000D01*
X146118013Y-98356520D01*
X145996726Y-98175000D01*
X146118013Y-97993480D01*
X146208216Y-97540000D01*
X146139605Y-97195069D01*
X155814830Y-97195069D01*
X155964471Y-97557229D01*
X156241314Y-97834555D01*
X156603212Y-97984828D01*
X156995069Y-97985170D01*
X157357229Y-97835529D01*
X157524113Y-97668936D01*
X157803212Y-97784828D01*
X158195069Y-97785170D01*
X158557229Y-97635529D01*
X158834555Y-97358686D01*
X158890868Y-97223069D01*
X165511830Y-97223069D01*
X165661471Y-97585229D01*
X165938314Y-97862555D01*
X166300212Y-98012828D01*
X166692069Y-98013170D01*
X167054229Y-97863529D01*
X167331555Y-97586686D01*
X167481828Y-97224788D01*
X167481829Y-97223069D01*
X169321830Y-97223069D01*
X169471471Y-97585229D01*
X169748314Y-97862555D01*
X170110212Y-98012828D01*
X170502069Y-98013170D01*
X170864229Y-97863529D01*
X171141555Y-97586686D01*
X171291828Y-97224788D01*
X171292170Y-96832931D01*
X171142529Y-96470771D01*
X170865686Y-96193445D01*
X170503788Y-96043172D01*
X170111931Y-96042830D01*
X169749771Y-96192471D01*
X169472445Y-96469314D01*
X169322172Y-96831212D01*
X169321830Y-97223069D01*
X167481829Y-97223069D01*
X167482170Y-96832931D01*
X167427872Y-96701519D01*
X167689229Y-96593529D01*
X167966555Y-96316686D01*
X168116828Y-95954788D01*
X168117170Y-95562931D01*
X167967529Y-95200771D01*
X167690686Y-94923445D01*
X167328788Y-94773172D01*
X166936931Y-94772830D01*
X166574771Y-94922471D01*
X166297445Y-95199314D01*
X166147172Y-95561212D01*
X166146830Y-95953069D01*
X166201128Y-96084481D01*
X165939771Y-96192471D01*
X165662445Y-96469314D01*
X165512172Y-96831212D01*
X165511830Y-97223069D01*
X158890868Y-97223069D01*
X158984828Y-96996788D01*
X158985170Y-96604931D01*
X158835529Y-96242771D01*
X158558686Y-95965445D01*
X158196788Y-95815172D01*
X157804931Y-95814830D01*
X157442771Y-95964471D01*
X157275887Y-96131064D01*
X156996788Y-96015172D01*
X156604931Y-96014830D01*
X156242771Y-96164471D01*
X155965445Y-96441314D01*
X155815172Y-96803212D01*
X155814830Y-97195069D01*
X146139605Y-97195069D01*
X146118013Y-97086520D01*
X145996726Y-96905000D01*
X146118013Y-96723480D01*
X146208216Y-96270000D01*
X146122167Y-95837402D01*
X146146431Y-95801890D01*
X146197440Y-95550000D01*
X146197440Y-94450000D01*
X146153162Y-94214683D01*
X146014090Y-93998559D01*
X145801890Y-93853569D01*
X145550000Y-93802560D01*
X144450000Y-93802560D01*
X144214683Y-93846838D01*
X144130295Y-93901140D01*
X144039745Y-93856186D01*
X143857000Y-93980563D01*
X143857000Y-94193089D01*
X143853569Y-94198110D01*
X143802560Y-94450000D01*
X143802560Y-95094815D01*
X143753216Y-95085000D01*
X143706784Y-95085000D01*
X143495636Y-95127000D01*
X142711639Y-95127000D01*
X142586197Y-95309744D01*
X142702178Y-95589776D01*
X142736897Y-95629578D01*
X142611987Y-95816520D01*
X142521784Y-96270000D01*
X116208216Y-96270000D01*
X116120904Y-95831052D01*
X116185000Y-95676310D01*
X116185000Y-95285750D01*
X116026250Y-95127000D01*
X115234364Y-95127000D01*
X115023216Y-95085000D01*
X114976784Y-95085000D01*
X114919023Y-95096489D01*
X114938216Y-95000000D01*
X114873000Y-94672138D01*
X114873000Y-93973750D01*
X115127000Y-93973750D01*
X115127000Y-94873000D01*
X116026250Y-94873000D01*
X116185000Y-94714250D01*
X116185000Y-94690256D01*
X142586197Y-94690256D01*
X142711639Y-94873000D01*
X143603000Y-94873000D01*
X143603000Y-93980563D01*
X143420255Y-93856186D01*
X143006114Y-94061788D01*
X142702178Y-94410224D01*
X142586197Y-94690256D01*
X116185000Y-94690256D01*
X116185000Y-94323690D01*
X116088327Y-94090301D01*
X115909698Y-93911673D01*
X115676309Y-93815000D01*
X115285750Y-93815000D01*
X115127000Y-93973750D01*
X114873000Y-93973750D01*
X114714250Y-93815000D01*
X114323691Y-93815000D01*
X114138615Y-93891661D01*
X113753216Y-93815000D01*
X113706784Y-93815000D01*
X113253304Y-93905203D01*
X112868862Y-94162078D01*
X112611987Y-94546520D01*
X112521784Y-95000000D01*
X100710000Y-95000000D01*
X100710000Y-93195069D01*
X158214830Y-93195069D01*
X158364471Y-93557229D01*
X158641314Y-93834555D01*
X158733870Y-93872987D01*
X158677445Y-93929314D01*
X158527172Y-94291212D01*
X158526830Y-94683069D01*
X158676471Y-95045229D01*
X158953314Y-95322555D01*
X159315212Y-95472828D01*
X159707069Y-95473170D01*
X160069229Y-95323529D01*
X160074698Y-95318069D01*
X164241830Y-95318069D01*
X164391471Y-95680229D01*
X164668314Y-95957555D01*
X165030212Y-96107828D01*
X165422069Y-96108170D01*
X165784229Y-95958529D01*
X166061555Y-95681686D01*
X166211828Y-95319788D01*
X166212170Y-94927931D01*
X166157872Y-94796519D01*
X166419229Y-94688529D01*
X166696555Y-94411686D01*
X166783018Y-94203458D01*
X167486987Y-94203458D01*
X167636628Y-94565618D01*
X167913471Y-94842944D01*
X168061265Y-94904313D01*
X168052172Y-94926212D01*
X168051830Y-95318069D01*
X168201471Y-95680229D01*
X168478314Y-95957555D01*
X168840212Y-96107828D01*
X169232069Y-96108170D01*
X169594229Y-95958529D01*
X169871555Y-95681686D01*
X170021828Y-95319788D01*
X170022170Y-94927931D01*
X169872529Y-94565771D01*
X169692087Y-94385014D01*
X169780705Y-94348398D01*
X170058031Y-94071555D01*
X170160973Y-93823641D01*
X185318400Y-93823641D01*
X185318400Y-93882359D01*
X185432474Y-94455848D01*
X185757330Y-94942029D01*
X186028172Y-95123000D01*
X185757330Y-95303971D01*
X185432474Y-95790152D01*
X185318400Y-96363641D01*
X185318400Y-96422359D01*
X185432474Y-96995848D01*
X185757330Y-97482029D01*
X186243511Y-97806885D01*
X186817000Y-97920959D01*
X187390489Y-97806885D01*
X187876670Y-97482029D01*
X187885805Y-97468358D01*
X187890238Y-97491917D01*
X188029310Y-97708041D01*
X188241510Y-97853031D01*
X188493400Y-97904040D01*
X190220600Y-97904040D01*
X190455917Y-97859762D01*
X190672041Y-97720690D01*
X190817031Y-97508490D01*
X190868040Y-97256600D01*
X190868040Y-95529400D01*
X190823762Y-95294083D01*
X190684690Y-95077959D01*
X190472490Y-94932969D01*
X190428655Y-94924092D01*
X190741526Y-94455848D01*
X190855600Y-93882359D01*
X190855600Y-93823641D01*
X190741526Y-93250152D01*
X190416670Y-92763971D01*
X190145828Y-92583000D01*
X190416670Y-92402029D01*
X190741526Y-91915848D01*
X190855600Y-91342359D01*
X190855600Y-91283641D01*
X190741526Y-90710152D01*
X190416670Y-90223971D01*
X189930489Y-89899115D01*
X189357000Y-89785041D01*
X188783511Y-89899115D01*
X188297330Y-90223971D01*
X188081336Y-90547228D01*
X188023821Y-90424510D01*
X187591947Y-90030312D01*
X187176026Y-89858042D01*
X186944000Y-89979183D01*
X186944000Y-91186000D01*
X186964000Y-91186000D01*
X186964000Y-91440000D01*
X186944000Y-91440000D01*
X186944000Y-91460000D01*
X186690000Y-91460000D01*
X186690000Y-91440000D01*
X185482531Y-91440000D01*
X185362032Y-91672027D01*
X185610179Y-92201490D01*
X186028161Y-92583008D01*
X185757330Y-92763971D01*
X185432474Y-93250152D01*
X185318400Y-93823641D01*
X170160973Y-93823641D01*
X170208304Y-93709657D01*
X170208646Y-93317800D01*
X170059005Y-92955640D01*
X169881744Y-92778069D01*
X173131830Y-92778069D01*
X173281471Y-93140229D01*
X173558314Y-93417555D01*
X173920212Y-93567828D01*
X174312069Y-93568170D01*
X174674229Y-93418529D01*
X174751893Y-93341000D01*
X174828314Y-93417555D01*
X175190212Y-93567828D01*
X175582069Y-93568170D01*
X175944229Y-93418529D01*
X176221555Y-93141686D01*
X176371828Y-92779788D01*
X176372170Y-92387931D01*
X176222529Y-92025771D01*
X175945686Y-91748445D01*
X175583788Y-91598172D01*
X175191931Y-91597830D01*
X174829771Y-91747471D01*
X174752107Y-91825000D01*
X174675686Y-91748445D01*
X174313788Y-91598172D01*
X173921931Y-91597830D01*
X173559771Y-91747471D01*
X173282445Y-92024314D01*
X173132172Y-92386212D01*
X173131830Y-92778069D01*
X169881744Y-92778069D01*
X169782162Y-92678314D01*
X169643259Y-92620636D01*
X169670895Y-92593048D01*
X169821168Y-92231150D01*
X169821510Y-91839293D01*
X169671869Y-91477133D01*
X169395026Y-91199807D01*
X169033128Y-91049534D01*
X168641271Y-91049192D01*
X168279111Y-91198833D01*
X168001785Y-91475676D01*
X167851512Y-91837574D01*
X167851170Y-92229431D01*
X168000811Y-92591591D01*
X168277654Y-92868917D01*
X168416557Y-92926595D01*
X168388921Y-92954183D01*
X168360225Y-93023292D01*
X168277088Y-93023219D01*
X167914928Y-93172860D01*
X167637602Y-93449703D01*
X167487329Y-93811601D01*
X167486987Y-94203458D01*
X166783018Y-94203458D01*
X166846828Y-94049788D01*
X166847170Y-93657931D01*
X166697529Y-93295771D01*
X166420686Y-93018445D01*
X166058788Y-92868172D01*
X165666931Y-92867830D01*
X165304771Y-93017471D01*
X165027445Y-93294314D01*
X164877172Y-93656212D01*
X164876830Y-94048069D01*
X164931128Y-94179481D01*
X164669771Y-94287471D01*
X164392445Y-94564314D01*
X164242172Y-94926212D01*
X164241830Y-95318069D01*
X160074698Y-95318069D01*
X160346555Y-95046686D01*
X160496828Y-94684788D01*
X160497170Y-94292931D01*
X160347529Y-93930771D01*
X160070686Y-93653445D01*
X159978130Y-93615013D01*
X160034555Y-93558686D01*
X160178642Y-93211686D01*
X160291314Y-93324555D01*
X160653212Y-93474828D01*
X161045069Y-93475170D01*
X161407229Y-93325529D01*
X161684555Y-93048686D01*
X161834828Y-92686788D01*
X161835170Y-92294931D01*
X161685529Y-91932771D01*
X161408686Y-91655445D01*
X161046788Y-91505172D01*
X160654931Y-91504830D01*
X160292771Y-91654471D01*
X160015445Y-91931314D01*
X159871358Y-92278314D01*
X159758686Y-92165445D01*
X159396788Y-92015172D01*
X159004931Y-92014830D01*
X158642771Y-92164471D01*
X158365445Y-92441314D01*
X158215172Y-92803212D01*
X158214830Y-93195069D01*
X100710000Y-93195069D01*
X100710000Y-90953973D01*
X185362032Y-90953973D01*
X185482531Y-91186000D01*
X186690000Y-91186000D01*
X186690000Y-89979183D01*
X186457974Y-89858042D01*
X186042053Y-90030312D01*
X185610179Y-90424510D01*
X185362032Y-90953973D01*
X100710000Y-90953973D01*
X100710000Y-89603069D01*
X172496830Y-89603069D01*
X172646471Y-89965229D01*
X172923314Y-90242555D01*
X173285212Y-90392828D01*
X173677069Y-90393170D01*
X173932182Y-90287760D01*
X174185215Y-90392828D01*
X174577072Y-90393170D01*
X174939232Y-90243529D01*
X175216558Y-89966686D01*
X175366831Y-89604788D01*
X175367173Y-89212931D01*
X175217532Y-88850771D01*
X174940689Y-88573445D01*
X174578791Y-88423172D01*
X174186934Y-88422830D01*
X173931821Y-88528240D01*
X173678788Y-88423172D01*
X173286931Y-88422830D01*
X172924771Y-88572471D01*
X172647445Y-88849314D01*
X172497172Y-89211212D01*
X172496830Y-89603069D01*
X100710000Y-89603069D01*
X100710000Y-88333069D01*
X160431830Y-88333069D01*
X160581471Y-88695229D01*
X160858314Y-88972555D01*
X161220212Y-89122828D01*
X161612069Y-89123170D01*
X161974229Y-88973529D01*
X162251555Y-88696686D01*
X162401828Y-88334788D01*
X162402170Y-87942931D01*
X162258437Y-87595069D01*
X169214830Y-87595069D01*
X169364471Y-87957229D01*
X169641314Y-88234555D01*
X170003212Y-88384828D01*
X170395069Y-88385170D01*
X170757229Y-88235529D01*
X171034555Y-87958686D01*
X171184828Y-87596788D01*
X171185170Y-87204931D01*
X171035529Y-86842771D01*
X170758686Y-86565445D01*
X170396788Y-86415172D01*
X170004931Y-86414830D01*
X169642771Y-86564471D01*
X169365445Y-86841314D01*
X169215172Y-87203212D01*
X169214830Y-87595069D01*
X162258437Y-87595069D01*
X162252529Y-87580771D01*
X161975686Y-87303445D01*
X161613788Y-87153172D01*
X161221931Y-87152830D01*
X160859771Y-87302471D01*
X160582445Y-87579314D01*
X160432172Y-87941212D01*
X160431830Y-88333069D01*
X100710000Y-88333069D01*
X100710000Y-84995069D01*
X168014830Y-84995069D01*
X168164471Y-85357229D01*
X168441314Y-85634555D01*
X168803212Y-85784828D01*
X169195069Y-85785170D01*
X169520463Y-85650720D01*
X169564471Y-85757229D01*
X169841314Y-86034555D01*
X170203212Y-86184828D01*
X170595069Y-86185170D01*
X170957229Y-86035529D01*
X171234555Y-85758686D01*
X171384828Y-85396788D01*
X171385170Y-85004931D01*
X171235529Y-84642771D01*
X170958686Y-84365445D01*
X170596788Y-84215172D01*
X170204931Y-84214830D01*
X169879537Y-84349280D01*
X169835529Y-84242771D01*
X169558686Y-83965445D01*
X169196788Y-83815172D01*
X168804931Y-83814830D01*
X168442771Y-83964471D01*
X168165445Y-84241314D01*
X168015172Y-84603212D01*
X168014830Y-84995069D01*
X100710000Y-84995069D01*
X100710000Y-79443069D01*
X164201829Y-79443069D01*
X164351470Y-79805229D01*
X164628313Y-80082555D01*
X164990211Y-80232828D01*
X165382068Y-80233170D01*
X165744228Y-80083529D01*
X166021554Y-79806686D01*
X166171827Y-79444788D01*
X166172169Y-79052931D01*
X166022528Y-78690771D01*
X165745685Y-78413445D01*
X165383787Y-78263172D01*
X164991930Y-78262830D01*
X164629770Y-78412471D01*
X164352444Y-78689314D01*
X164202171Y-79051212D01*
X164201829Y-79443069D01*
X100710000Y-79443069D01*
X100710000Y-76903069D01*
X161701830Y-76903069D01*
X161851471Y-77265229D01*
X162128314Y-77542555D01*
X162490212Y-77692828D01*
X162882069Y-77693170D01*
X163244229Y-77543529D01*
X163521555Y-77266686D01*
X163671828Y-76904788D01*
X163672170Y-76512931D01*
X163522529Y-76150771D01*
X163245686Y-75873445D01*
X162883788Y-75723172D01*
X162491931Y-75722830D01*
X162129771Y-75872471D01*
X161852445Y-76149314D01*
X161702172Y-76511212D01*
X161701830Y-76903069D01*
X100710000Y-76903069D01*
X100710000Y-73093069D01*
X164876830Y-73093069D01*
X165026471Y-73455229D01*
X165303314Y-73732555D01*
X165665212Y-73882828D01*
X166057069Y-73883170D01*
X166419229Y-73733529D01*
X166696555Y-73456686D01*
X166846828Y-73094788D01*
X166846829Y-73093069D01*
X172496830Y-73093069D01*
X172646471Y-73455229D01*
X172923314Y-73732555D01*
X173285212Y-73882828D01*
X173677069Y-73883170D01*
X174039229Y-73733529D01*
X174316555Y-73456686D01*
X174434605Y-73172390D01*
X174551471Y-73455229D01*
X174828314Y-73732555D01*
X175083242Y-73838410D01*
X175187868Y-74091626D01*
X175464711Y-74368952D01*
X175826609Y-74519225D01*
X176218466Y-74519567D01*
X176580626Y-74369926D01*
X176857952Y-74093083D01*
X177008225Y-73731185D01*
X177008567Y-73339328D01*
X176858926Y-72977168D01*
X176582083Y-72699842D01*
X176327155Y-72593987D01*
X176222529Y-72340771D01*
X175945686Y-72063445D01*
X175583788Y-71913172D01*
X175191931Y-71912830D01*
X174829771Y-72062471D01*
X174552445Y-72339314D01*
X174434395Y-72623610D01*
X174317529Y-72340771D01*
X174040686Y-72063445D01*
X173678788Y-71913172D01*
X173286931Y-71912830D01*
X172924771Y-72062471D01*
X172647445Y-72339314D01*
X172497172Y-72701212D01*
X172496830Y-73093069D01*
X166846829Y-73093069D01*
X166847170Y-72702931D01*
X166697529Y-72340771D01*
X166420686Y-72063445D01*
X166058788Y-71913172D01*
X165666931Y-71912830D01*
X165304771Y-72062471D01*
X165027445Y-72339314D01*
X164877172Y-72701212D01*
X164876830Y-73093069D01*
X100710000Y-73093069D01*
X100710000Y-71595069D01*
X107014830Y-71595069D01*
X107164471Y-71957229D01*
X107441314Y-72234555D01*
X107803212Y-72384828D01*
X108195069Y-72385170D01*
X108557229Y-72235529D01*
X108834555Y-71958686D01*
X108984828Y-71596788D01*
X108985170Y-71204931D01*
X108835529Y-70842771D01*
X108778013Y-70785155D01*
X108795069Y-70785170D01*
X109157229Y-70635529D01*
X109434555Y-70358686D01*
X109584828Y-69996788D01*
X109585170Y-69604931D01*
X109435529Y-69242771D01*
X109158686Y-68965445D01*
X108796788Y-68815172D01*
X108404931Y-68814830D01*
X108042771Y-68964471D01*
X107765445Y-69241314D01*
X107615172Y-69603212D01*
X107614830Y-69995069D01*
X107764471Y-70357229D01*
X107821987Y-70414845D01*
X107804931Y-70414830D01*
X107442771Y-70564471D01*
X107165445Y-70841314D01*
X107015172Y-71203212D01*
X107014830Y-71595069D01*
X100710000Y-71595069D01*
X100710000Y-68013069D01*
X182656830Y-68013069D01*
X182806471Y-68375229D01*
X183083314Y-68652555D01*
X183445212Y-68802828D01*
X183837069Y-68803170D01*
X184199229Y-68653529D01*
X184476555Y-68376686D01*
X184626828Y-68014788D01*
X184627170Y-67622931D01*
X184477529Y-67260771D01*
X184200686Y-66983445D01*
X183838788Y-66833172D01*
X183446931Y-66832830D01*
X183084771Y-66982471D01*
X182807445Y-67259314D01*
X182657172Y-67621212D01*
X182656830Y-68013069D01*
X100710000Y-68013069D01*
X100710000Y-62445069D01*
X138514830Y-62445069D01*
X138664471Y-62807229D01*
X138941314Y-63084555D01*
X139303212Y-63234828D01*
X139695069Y-63235170D01*
X140057229Y-63085529D01*
X140334555Y-62808686D01*
X140484828Y-62446788D01*
X140485170Y-62054931D01*
X140335529Y-61692771D01*
X140058686Y-61415445D01*
X139696788Y-61265172D01*
X139304931Y-61264830D01*
X138942771Y-61414471D01*
X138665445Y-61691314D01*
X138515172Y-62053212D01*
X138514830Y-62445069D01*
X100710000Y-62445069D01*
X100710000Y-57443000D01*
X117374560Y-57443000D01*
X117374560Y-59143000D01*
X117418838Y-59378317D01*
X117557910Y-59594441D01*
X117770110Y-59739431D01*
X117826454Y-59750841D01*
X117821946Y-59753853D01*
X117500039Y-60235622D01*
X117387000Y-60803907D01*
X117387000Y-60862093D01*
X117500039Y-61430378D01*
X117821946Y-61912147D01*
X118303715Y-62234054D01*
X118872000Y-62347093D01*
X119440285Y-62234054D01*
X119922054Y-61912147D01*
X120142000Y-61582974D01*
X120361946Y-61912147D01*
X120843715Y-62234054D01*
X121412000Y-62347093D01*
X121980285Y-62234054D01*
X122462054Y-61912147D01*
X122682000Y-61582974D01*
X122901946Y-61912147D01*
X123383715Y-62234054D01*
X123952000Y-62347093D01*
X124520285Y-62234054D01*
X125002054Y-61912147D01*
X125222000Y-61582974D01*
X125441946Y-61912147D01*
X125923715Y-62234054D01*
X126492000Y-62347093D01*
X127060285Y-62234054D01*
X127542054Y-61912147D01*
X127762000Y-61582974D01*
X127981946Y-61912147D01*
X128463715Y-62234054D01*
X129032000Y-62347093D01*
X129600285Y-62234054D01*
X130082054Y-61912147D01*
X130302000Y-61582974D01*
X130521946Y-61912147D01*
X131003715Y-62234054D01*
X131572000Y-62347093D01*
X132140285Y-62234054D01*
X132622054Y-61912147D01*
X132842000Y-61582974D01*
X133061946Y-61912147D01*
X133543715Y-62234054D01*
X134112000Y-62347093D01*
X134680285Y-62234054D01*
X135162054Y-61912147D01*
X135382000Y-61582974D01*
X135601946Y-61912147D01*
X136083715Y-62234054D01*
X136652000Y-62347093D01*
X137220285Y-62234054D01*
X137702054Y-61912147D01*
X138023961Y-61430378D01*
X138137000Y-60862093D01*
X138137000Y-60803907D01*
X138023961Y-60235622D01*
X137702054Y-59753853D01*
X137416422Y-59563000D01*
X137702054Y-59372147D01*
X138023961Y-58890378D01*
X138137000Y-58322093D01*
X138137000Y-58263907D01*
X138023961Y-57695622D01*
X137855165Y-57443000D01*
X154204560Y-57443000D01*
X154204560Y-59143000D01*
X154248838Y-59378317D01*
X154387910Y-59594441D01*
X154600110Y-59739431D01*
X154656454Y-59750841D01*
X154651946Y-59753853D01*
X154330039Y-60235622D01*
X154217000Y-60803907D01*
X154217000Y-60862093D01*
X154330039Y-61430378D01*
X154651946Y-61912147D01*
X155133715Y-62234054D01*
X155702000Y-62347093D01*
X156270285Y-62234054D01*
X156752054Y-61912147D01*
X156972000Y-61582974D01*
X157191946Y-61912147D01*
X157673715Y-62234054D01*
X158242000Y-62347093D01*
X158810285Y-62234054D01*
X159292054Y-61912147D01*
X159512000Y-61582974D01*
X159731946Y-61912147D01*
X160213715Y-62234054D01*
X160782000Y-62347093D01*
X161350285Y-62234054D01*
X161832054Y-61912147D01*
X162052000Y-61582974D01*
X162271946Y-61912147D01*
X162753715Y-62234054D01*
X163322000Y-62347093D01*
X163890285Y-62234054D01*
X164372054Y-61912147D01*
X164592000Y-61582974D01*
X164811946Y-61912147D01*
X165293715Y-62234054D01*
X165862000Y-62347093D01*
X166430285Y-62234054D01*
X166912054Y-61912147D01*
X167132000Y-61582974D01*
X167351946Y-61912147D01*
X167833715Y-62234054D01*
X168402000Y-62347093D01*
X168970285Y-62234054D01*
X169452054Y-61912147D01*
X169672000Y-61582974D01*
X169891946Y-61912147D01*
X170373715Y-62234054D01*
X170942000Y-62347093D01*
X171510285Y-62234054D01*
X171992054Y-61912147D01*
X172212000Y-61582974D01*
X172431946Y-61912147D01*
X172913715Y-62234054D01*
X173482000Y-62347093D01*
X174050285Y-62234054D01*
X174532054Y-61912147D01*
X174752000Y-61582974D01*
X174971946Y-61912147D01*
X175453715Y-62234054D01*
X176022000Y-62347093D01*
X176590285Y-62234054D01*
X177072054Y-61912147D01*
X177292000Y-61582974D01*
X177511946Y-61912147D01*
X177993715Y-62234054D01*
X178562000Y-62347093D01*
X179130285Y-62234054D01*
X179612054Y-61912147D01*
X179933961Y-61430378D01*
X180047000Y-60862093D01*
X180047000Y-60803907D01*
X179933961Y-60235622D01*
X179612054Y-59753853D01*
X179326422Y-59563000D01*
X179612054Y-59372147D01*
X179933961Y-58890378D01*
X180047000Y-58322093D01*
X180047000Y-58263907D01*
X179933961Y-57695622D01*
X179612054Y-57213853D01*
X179130285Y-56891946D01*
X178562000Y-56778907D01*
X177993715Y-56891946D01*
X177511946Y-57213853D01*
X177292000Y-57543026D01*
X177072054Y-57213853D01*
X176590285Y-56891946D01*
X176022000Y-56778907D01*
X175453715Y-56891946D01*
X174971946Y-57213853D01*
X174752000Y-57543026D01*
X174532054Y-57213853D01*
X174050285Y-56891946D01*
X173482000Y-56778907D01*
X172913715Y-56891946D01*
X172431946Y-57213853D01*
X172212000Y-57543026D01*
X171992054Y-57213853D01*
X171510285Y-56891946D01*
X170942000Y-56778907D01*
X170373715Y-56891946D01*
X169891946Y-57213853D01*
X169672000Y-57543026D01*
X169452054Y-57213853D01*
X168970285Y-56891946D01*
X168402000Y-56778907D01*
X167833715Y-56891946D01*
X167351946Y-57213853D01*
X167132000Y-57543026D01*
X166912054Y-57213853D01*
X166430285Y-56891946D01*
X165862000Y-56778907D01*
X165293715Y-56891946D01*
X164811946Y-57213853D01*
X164592000Y-57543026D01*
X164372054Y-57213853D01*
X163890285Y-56891946D01*
X163322000Y-56778907D01*
X162753715Y-56891946D01*
X162271946Y-57213853D01*
X162052000Y-57543026D01*
X161832054Y-57213853D01*
X161350285Y-56891946D01*
X160782000Y-56778907D01*
X160213715Y-56891946D01*
X159731946Y-57213853D01*
X159504298Y-57554553D01*
X159437183Y-57411642D01*
X159008924Y-57021355D01*
X158598890Y-56851524D01*
X158369000Y-56972845D01*
X158369000Y-58166000D01*
X158389000Y-58166000D01*
X158389000Y-58420000D01*
X158369000Y-58420000D01*
X158369000Y-58440000D01*
X158115000Y-58440000D01*
X158115000Y-58420000D01*
X158095000Y-58420000D01*
X158095000Y-58166000D01*
X158115000Y-58166000D01*
X158115000Y-56972845D01*
X157885110Y-56851524D01*
X157475076Y-57021355D01*
X157172063Y-57297501D01*
X157155162Y-57207683D01*
X157016090Y-56991559D01*
X156803890Y-56846569D01*
X156552000Y-56795560D01*
X154852000Y-56795560D01*
X154616683Y-56839838D01*
X154400559Y-56978910D01*
X154255569Y-57191110D01*
X154204560Y-57443000D01*
X137855165Y-57443000D01*
X137702054Y-57213853D01*
X137220285Y-56891946D01*
X136652000Y-56778907D01*
X136083715Y-56891946D01*
X135601946Y-57213853D01*
X135382000Y-57543026D01*
X135162054Y-57213853D01*
X134680285Y-56891946D01*
X134112000Y-56778907D01*
X133543715Y-56891946D01*
X133061946Y-57213853D01*
X132842000Y-57543026D01*
X132622054Y-57213853D01*
X132140285Y-56891946D01*
X131572000Y-56778907D01*
X131003715Y-56891946D01*
X130521946Y-57213853D01*
X130302000Y-57543026D01*
X130082054Y-57213853D01*
X129634362Y-56914715D01*
X129803212Y-56984828D01*
X130195069Y-56985170D01*
X130557229Y-56835529D01*
X130834555Y-56558686D01*
X130984828Y-56196788D01*
X130984829Y-56195069D01*
X132014830Y-56195069D01*
X132164471Y-56557229D01*
X132441314Y-56834555D01*
X132803212Y-56984828D01*
X133195069Y-56985170D01*
X133557229Y-56835529D01*
X133834555Y-56558686D01*
X133984828Y-56196788D01*
X133985170Y-55804931D01*
X133835529Y-55442771D01*
X133558686Y-55165445D01*
X133196788Y-55015172D01*
X132804931Y-55014830D01*
X132442771Y-55164471D01*
X132165445Y-55441314D01*
X132015172Y-55803212D01*
X132014830Y-56195069D01*
X130984829Y-56195069D01*
X130985170Y-55804931D01*
X130835529Y-55442771D01*
X130558686Y-55165445D01*
X130196788Y-55015172D01*
X129804931Y-55014830D01*
X129442771Y-55164471D01*
X129165445Y-55441314D01*
X129015172Y-55803212D01*
X129014830Y-56195069D01*
X129164471Y-56557229D01*
X129441314Y-56834555D01*
X129560440Y-56884020D01*
X129032000Y-56778907D01*
X128463715Y-56891946D01*
X127981946Y-57213853D01*
X127762000Y-57543026D01*
X127542054Y-57213853D01*
X127060285Y-56891946D01*
X126492000Y-56778907D01*
X125923715Y-56891946D01*
X125441946Y-57213853D01*
X125222000Y-57543026D01*
X125002054Y-57213853D01*
X124520285Y-56891946D01*
X123952000Y-56778907D01*
X123383715Y-56891946D01*
X122901946Y-57213853D01*
X122682000Y-57543026D01*
X122462054Y-57213853D01*
X121980285Y-56891946D01*
X121412000Y-56778907D01*
X120843715Y-56891946D01*
X120361946Y-57213853D01*
X120334150Y-57255452D01*
X120325162Y-57207683D01*
X120186090Y-56991559D01*
X119973890Y-56846569D01*
X119722000Y-56795560D01*
X118022000Y-56795560D01*
X117786683Y-56839838D01*
X117570559Y-56978910D01*
X117425569Y-57191110D01*
X117374560Y-57443000D01*
X100710000Y-57443000D01*
X100710000Y-54861442D01*
X103164509Y-54861442D01*
X103595202Y-55903801D01*
X104392005Y-56701995D01*
X105433610Y-57134507D01*
X106561442Y-57135491D01*
X107603801Y-56704798D01*
X108401995Y-55907995D01*
X108834507Y-54866390D01*
X108834511Y-54861442D01*
X189164509Y-54861442D01*
X189595202Y-55903801D01*
X190392005Y-56701995D01*
X191433610Y-57134507D01*
X192561442Y-57135491D01*
X193603801Y-56704798D01*
X194401995Y-55907995D01*
X194834507Y-54866390D01*
X194835491Y-53738558D01*
X194404798Y-52696199D01*
X193607995Y-51898005D01*
X192566390Y-51465493D01*
X191438558Y-51464509D01*
X190396199Y-51895202D01*
X189598005Y-52692005D01*
X189165493Y-53733610D01*
X189164509Y-54861442D01*
X108834511Y-54861442D01*
X108835491Y-53738558D01*
X108445651Y-52795069D01*
X125014830Y-52795069D01*
X125164471Y-53157229D01*
X125441314Y-53434555D01*
X125803212Y-53584828D01*
X126195069Y-53585170D01*
X126557229Y-53435529D01*
X126834555Y-53158686D01*
X126984828Y-52796788D01*
X126985170Y-52404931D01*
X126835529Y-52042771D01*
X126558686Y-51765445D01*
X126196788Y-51615172D01*
X125804931Y-51614830D01*
X125442771Y-51764471D01*
X125165445Y-52041314D01*
X125015172Y-52403212D01*
X125014830Y-52795069D01*
X108445651Y-52795069D01*
X108404798Y-52696199D01*
X107607995Y-51898005D01*
X106566390Y-51465493D01*
X105438558Y-51464509D01*
X104396199Y-51895202D01*
X103598005Y-52692005D01*
X103165493Y-53733610D01*
X103164509Y-54861442D01*
X100710000Y-54861442D01*
X100710000Y-50710000D01*
X197290000Y-50710000D01*
X197290000Y-133290000D01*
X197290000Y-133290000D01*
G37*
X197290000Y-133290000D02*
X100710000Y-133290000D01*
X100710000Y-130261442D01*
X103164509Y-130261442D01*
X103595202Y-131303801D01*
X104392005Y-132101995D01*
X105433610Y-132534507D01*
X106561442Y-132535491D01*
X107603801Y-132104798D01*
X108401995Y-131307995D01*
X108834507Y-130266390D01*
X108834511Y-130261442D01*
X189164509Y-130261442D01*
X189595202Y-131303801D01*
X190392005Y-132101995D01*
X191433610Y-132534507D01*
X192561442Y-132535491D01*
X193603801Y-132104798D01*
X194401995Y-131307995D01*
X194834507Y-130266390D01*
X194835491Y-129138558D01*
X194404798Y-128096199D01*
X193607995Y-127298005D01*
X192566390Y-126865493D01*
X191438558Y-126864509D01*
X190396199Y-127295202D01*
X189598005Y-128092005D01*
X189165493Y-129133610D01*
X189164509Y-130261442D01*
X108834511Y-130261442D01*
X108835491Y-129138558D01*
X108404798Y-128096199D01*
X107607995Y-127298005D01*
X106566390Y-126865493D01*
X105438558Y-126864509D01*
X104396199Y-127295202D01*
X103598005Y-128092005D01*
X103165493Y-129133610D01*
X103164509Y-130261442D01*
X100710000Y-130261442D01*
X100710000Y-122848000D01*
X154204560Y-122848000D01*
X154204560Y-124548000D01*
X154248838Y-124783317D01*
X154387910Y-124999441D01*
X154600110Y-125144431D01*
X154656454Y-125155841D01*
X154651946Y-125158853D01*
X154330039Y-125640622D01*
X154217000Y-126208907D01*
X154217000Y-126267093D01*
X154330039Y-126835378D01*
X154651946Y-127317147D01*
X155133715Y-127639054D01*
X155702000Y-127752093D01*
X156270285Y-127639054D01*
X156752054Y-127317147D01*
X156972000Y-126987974D01*
X157191946Y-127317147D01*
X157673715Y-127639054D01*
X158242000Y-127752093D01*
X158810285Y-127639054D01*
X159292054Y-127317147D01*
X159512000Y-126987974D01*
X159731946Y-127317147D01*
X160213715Y-127639054D01*
X160782000Y-127752093D01*
X161350285Y-127639054D01*
X161832054Y-127317147D01*
X162052000Y-126987974D01*
X162271946Y-127317147D01*
X162753715Y-127639054D01*
X163322000Y-127752093D01*
X163890285Y-127639054D01*
X164372054Y-127317147D01*
X164592000Y-126987974D01*
X164811946Y-127317147D01*
X165293715Y-127639054D01*
X165862000Y-127752093D01*
X166430285Y-127639054D01*
X166912054Y-127317147D01*
X167132000Y-126987974D01*
X167351946Y-127317147D01*
X167833715Y-127639054D01*
X168402000Y-127752093D01*
X168970285Y-127639054D01*
X169452054Y-127317147D01*
X169672000Y-126987974D01*
X169891946Y-127317147D01*
X170373715Y-127639054D01*
X170942000Y-127752093D01*
X171510285Y-127639054D01*
X171992054Y-127317147D01*
X172212000Y-126987974D01*
X172431946Y-127317147D01*
X172913715Y-127639054D01*
X173482000Y-127752093D01*
X174050285Y-127639054D01*
X174532054Y-127317147D01*
X174752000Y-126987974D01*
X174971946Y-127317147D01*
X175453715Y-127639054D01*
X176022000Y-127752093D01*
X176590285Y-127639054D01*
X177072054Y-127317147D01*
X177292000Y-126987974D01*
X177511946Y-127317147D01*
X177993715Y-127639054D01*
X178562000Y-127752093D01*
X179130285Y-127639054D01*
X179612054Y-127317147D01*
X179933961Y-126835378D01*
X180047000Y-126267093D01*
X180047000Y-126208907D01*
X179933961Y-125640622D01*
X179612054Y-125158853D01*
X179326422Y-124968000D01*
X179612054Y-124777147D01*
X179933961Y-124295378D01*
X180047000Y-123727093D01*
X180047000Y-123668907D01*
X179933961Y-123100622D01*
X179612054Y-122618853D01*
X179130285Y-122296946D01*
X178562000Y-122183907D01*
X177993715Y-122296946D01*
X177511946Y-122618853D01*
X177292000Y-122948026D01*
X177072054Y-122618853D01*
X176590285Y-122296946D01*
X176022000Y-122183907D01*
X175453715Y-122296946D01*
X174971946Y-122618853D01*
X174752000Y-122948026D01*
X174532054Y-122618853D01*
X174050285Y-122296946D01*
X173482000Y-122183907D01*
X172913715Y-122296946D01*
X172431946Y-122618853D01*
X172212000Y-122948026D01*
X171992054Y-122618853D01*
X171510285Y-122296946D01*
X170942000Y-122183907D01*
X170373715Y-122296946D01*
X169891946Y-122618853D01*
X169672000Y-122948026D01*
X169452054Y-122618853D01*
X168970285Y-122296946D01*
X168402000Y-122183907D01*
X167833715Y-122296946D01*
X167351946Y-122618853D01*
X167132000Y-122948026D01*
X166912054Y-122618853D01*
X166430285Y-122296946D01*
X165862000Y-122183907D01*
X165293715Y-122296946D01*
X164811946Y-122618853D01*
X164592000Y-122948026D01*
X164372054Y-122618853D01*
X163890285Y-122296946D01*
X163322000Y-122183907D01*
X162753715Y-122296946D01*
X162271946Y-122618853D01*
X162052000Y-122948026D01*
X161832054Y-122618853D01*
X161350285Y-122296946D01*
X160782000Y-122183907D01*
X160213715Y-122296946D01*
X159731946Y-122618853D01*
X159512000Y-122948026D01*
X159292054Y-122618853D01*
X158810285Y-122296946D01*
X158242000Y-122183907D01*
X157673715Y-122296946D01*
X157191946Y-122618853D01*
X157164150Y-122660452D01*
X157155162Y-122612683D01*
X157016090Y-122396559D01*
X156803890Y-122251569D01*
X156552000Y-122200560D01*
X154852000Y-122200560D01*
X154616683Y-122244838D01*
X154400559Y-122383910D01*
X154255569Y-122596110D01*
X154204560Y-122848000D01*
X100710000Y-122848000D01*
X100710000Y-120900271D01*
X161200032Y-120900271D01*
X161349673Y-121262431D01*
X161626516Y-121539757D01*
X161988414Y-121690030D01*
X162380271Y-121690372D01*
X162742431Y-121540731D01*
X163019757Y-121263888D01*
X163170030Y-120901990D01*
X163170372Y-120510133D01*
X163020731Y-120147973D01*
X162743888Y-119870647D01*
X162381990Y-119720374D01*
X161990133Y-119720032D01*
X161627973Y-119869673D01*
X161350647Y-120146516D01*
X161200374Y-120508414D01*
X161200032Y-120900271D01*
X100710000Y-120900271D01*
X100710000Y-115405069D01*
X155404830Y-115405069D01*
X155554471Y-115767229D01*
X155831314Y-116044555D01*
X155917044Y-116080153D01*
X155665445Y-116331314D01*
X155515172Y-116693212D01*
X155514830Y-117085069D01*
X155664471Y-117447229D01*
X155941314Y-117724555D01*
X156303212Y-117874828D01*
X156695069Y-117875170D01*
X157057229Y-117725529D01*
X157334555Y-117448686D01*
X157484828Y-117086788D01*
X157485170Y-116694931D01*
X157335529Y-116332771D01*
X157058686Y-116055445D01*
X156972956Y-116019847D01*
X157224555Y-115768686D01*
X157374828Y-115406788D01*
X157375170Y-115014931D01*
X157225529Y-114652771D01*
X156948686Y-114375445D01*
X156586788Y-114225172D01*
X156194931Y-114224830D01*
X155832771Y-114374471D01*
X155555445Y-114651314D01*
X155405172Y-115013212D01*
X155404830Y-115405069D01*
X100710000Y-115405069D01*
X100710000Y-110395069D01*
X156814830Y-110395069D01*
X156964471Y-110757229D01*
X157241314Y-111034555D01*
X157603212Y-111184828D01*
X157995069Y-111185170D01*
X158357229Y-111035529D01*
X158634555Y-110758686D01*
X158674952Y-110661398D01*
X158683212Y-110664828D01*
X159075069Y-110665170D01*
X159334274Y-110558069D01*
X183926830Y-110558069D01*
X184076471Y-110920229D01*
X184353314Y-111197555D01*
X184715212Y-111347828D01*
X185107069Y-111348170D01*
X185469229Y-111198529D01*
X185544383Y-111123506D01*
X185737853Y-111413054D01*
X186067026Y-111633000D01*
X185737853Y-111852946D01*
X185415946Y-112334715D01*
X185302907Y-112903000D01*
X185415946Y-113471285D01*
X185737853Y-113953054D01*
X186067026Y-114173000D01*
X185737853Y-114392946D01*
X185415946Y-114874715D01*
X185302907Y-115443000D01*
X185415946Y-116011285D01*
X185737853Y-116493054D01*
X185779452Y-116520850D01*
X185731683Y-116529838D01*
X185515559Y-116668910D01*
X185370569Y-116881110D01*
X185319560Y-117133000D01*
X185319560Y-118833000D01*
X185363838Y-119068317D01*
X185502910Y-119284441D01*
X185715110Y-119429431D01*
X185967000Y-119480440D01*
X187667000Y-119480440D01*
X187902317Y-119436162D01*
X188118441Y-119297090D01*
X188263431Y-119084890D01*
X188274841Y-119028546D01*
X188277853Y-119033054D01*
X188759622Y-119354961D01*
X189327907Y-119468000D01*
X189386093Y-119468000D01*
X189954378Y-119354961D01*
X190436147Y-119033054D01*
X190758054Y-118551285D01*
X190871093Y-117983000D01*
X190758054Y-117414715D01*
X190436147Y-116932946D01*
X190106974Y-116713000D01*
X190436147Y-116493054D01*
X190758054Y-116011285D01*
X190760966Y-115996641D01*
X192612095Y-115996641D01*
X192761736Y-116358801D01*
X193038579Y-116636127D01*
X193400477Y-116786400D01*
X193792334Y-116786742D01*
X194154494Y-116637101D01*
X194431820Y-116360258D01*
X194582093Y-115998360D01*
X194582435Y-115606503D01*
X194432794Y-115244343D01*
X194155951Y-114967017D01*
X193794053Y-114816744D01*
X193402196Y-114816402D01*
X193040036Y-114966043D01*
X192762710Y-115242886D01*
X192612437Y-115604784D01*
X192612095Y-115996641D01*
X190760966Y-115996641D01*
X190871093Y-115443000D01*
X190758054Y-114874715D01*
X190436147Y-114392946D01*
X190106974Y-114173000D01*
X190436147Y-113953054D01*
X190758054Y-113471285D01*
X190871093Y-112903000D01*
X190758054Y-112334715D01*
X190436147Y-111852946D01*
X190106974Y-111633000D01*
X190436147Y-111413054D01*
X190758054Y-110931285D01*
X190871093Y-110363000D01*
X190758054Y-109794715D01*
X190436147Y-109312946D01*
X189954378Y-108991039D01*
X189386093Y-108878000D01*
X189327907Y-108878000D01*
X188759622Y-108991039D01*
X188277853Y-109312946D01*
X188087000Y-109598578D01*
X187896147Y-109312946D01*
X187414378Y-108991039D01*
X186846093Y-108878000D01*
X186787907Y-108878000D01*
X186219622Y-108991039D01*
X185737853Y-109312946D01*
X185544473Y-109602361D01*
X185470686Y-109528445D01*
X185108788Y-109378172D01*
X184716931Y-109377830D01*
X184354771Y-109527471D01*
X184077445Y-109804314D01*
X183927172Y-110166212D01*
X183926830Y-110558069D01*
X159334274Y-110558069D01*
X159437229Y-110515529D01*
X159714555Y-110238686D01*
X159864828Y-109876788D01*
X159865170Y-109484931D01*
X159715529Y-109122771D01*
X159543001Y-108949942D01*
X159714555Y-108778686D01*
X159864828Y-108416788D01*
X159864853Y-108387161D01*
X164745307Y-108387161D01*
X164894948Y-108749321D01*
X165171791Y-109026647D01*
X165533689Y-109176920D01*
X165925546Y-109177262D01*
X166287706Y-109027621D01*
X166565032Y-108750778D01*
X166715305Y-108388880D01*
X166715447Y-108225069D01*
X170164830Y-108225069D01*
X170314471Y-108587229D01*
X170591314Y-108864555D01*
X170953212Y-109014828D01*
X171345069Y-109015170D01*
X171707229Y-108865529D01*
X171984555Y-108588686D01*
X172134828Y-108226788D01*
X172135170Y-107834931D01*
X171985529Y-107472771D01*
X171708686Y-107195445D01*
X171346788Y-107045172D01*
X170954931Y-107044830D01*
X170592771Y-107194471D01*
X170315445Y-107471314D01*
X170165172Y-107833212D01*
X170164830Y-108225069D01*
X166715447Y-108225069D01*
X166715647Y-107997023D01*
X166566006Y-107634863D01*
X166289163Y-107357537D01*
X165927265Y-107207264D01*
X165535408Y-107206922D01*
X165173248Y-107356563D01*
X164895922Y-107633406D01*
X164745649Y-107995304D01*
X164745307Y-108387161D01*
X159864853Y-108387161D01*
X159865170Y-108024931D01*
X159715529Y-107662771D01*
X159438686Y-107385445D01*
X159076788Y-107235172D01*
X158684931Y-107234830D01*
X158322771Y-107384471D01*
X158045445Y-107661314D01*
X157895172Y-108023212D01*
X157894830Y-108415069D01*
X158044471Y-108777229D01*
X158216999Y-108950058D01*
X158045445Y-109121314D01*
X158005048Y-109218602D01*
X157996788Y-109215172D01*
X157604931Y-109214830D01*
X157242771Y-109364471D01*
X156965445Y-109641314D01*
X156815172Y-110003212D01*
X156814830Y-110395069D01*
X100710000Y-110395069D01*
X100710000Y-100275069D01*
X106934830Y-100275069D01*
X107084471Y-100637229D01*
X107361314Y-100914555D01*
X107662364Y-101039562D01*
X107615172Y-101153212D01*
X107614830Y-101545069D01*
X107764471Y-101907229D01*
X108041314Y-102184555D01*
X108403212Y-102334828D01*
X108726497Y-102335110D01*
X108615172Y-102603212D01*
X108614830Y-102995069D01*
X108764471Y-103357229D01*
X109041314Y-103634555D01*
X109403212Y-103784828D01*
X109795069Y-103785170D01*
X110157229Y-103635529D01*
X110434555Y-103358686D01*
X110584828Y-102996788D01*
X110585170Y-102604931D01*
X110435529Y-102242771D01*
X110158686Y-101965445D01*
X109796788Y-101815172D01*
X109473503Y-101814890D01*
X109584828Y-101546788D01*
X109585170Y-101154931D01*
X109435529Y-100792771D01*
X109158686Y-100515445D01*
X108857636Y-100390438D01*
X108904828Y-100276788D01*
X108905170Y-99884931D01*
X108755529Y-99522771D01*
X108478686Y-99245445D01*
X108116788Y-99095172D01*
X107724931Y-99094830D01*
X107362771Y-99244471D01*
X107085445Y-99521314D01*
X106935172Y-99883212D01*
X106934830Y-100275069D01*
X100710000Y-100275069D01*
X100710000Y-95000000D01*
X112521784Y-95000000D01*
X112611987Y-95453480D01*
X112733274Y-95635000D01*
X112611987Y-95816520D01*
X112521784Y-96270000D01*
X112611987Y-96723480D01*
X112733274Y-96905000D01*
X112611987Y-97086520D01*
X112521784Y-97540000D01*
X112611987Y-97993480D01*
X112733274Y-98175000D01*
X112611987Y-98356520D01*
X112521784Y-98810000D01*
X112611987Y-99263480D01*
X112733274Y-99445000D01*
X112611987Y-99626520D01*
X112521784Y-100080000D01*
X112611987Y-100533480D01*
X112733274Y-100715000D01*
X112611987Y-100896520D01*
X112521784Y-101350000D01*
X112611987Y-101803480D01*
X112733274Y-101985000D01*
X112611987Y-102166520D01*
X112521784Y-102620000D01*
X112611987Y-103073480D01*
X112733274Y-103255000D01*
X112611987Y-103436520D01*
X112521784Y-103890000D01*
X112611987Y-104343480D01*
X112733274Y-104525000D01*
X112611987Y-104706520D01*
X112521784Y-105160000D01*
X112611987Y-105613480D01*
X112733274Y-105795000D01*
X112611987Y-105976520D01*
X112521784Y-106430000D01*
X112611987Y-106883480D01*
X112868862Y-107267922D01*
X113253304Y-107524797D01*
X113706784Y-107615000D01*
X113753216Y-107615000D01*
X114206696Y-107524797D01*
X114370738Y-107415188D01*
X114690255Y-107573814D01*
X114873000Y-107449437D01*
X114873000Y-106757862D01*
X114912954Y-106557000D01*
X115127000Y-106557000D01*
X115127000Y-107449437D01*
X115309745Y-107573814D01*
X115723886Y-107368212D01*
X116027822Y-107019776D01*
X116143803Y-106739744D01*
X116018361Y-106557000D01*
X115127000Y-106557000D01*
X114912954Y-106557000D01*
X114938216Y-106430000D01*
X114919023Y-106333511D01*
X114976784Y-106345000D01*
X115023216Y-106345000D01*
X115234364Y-106303000D01*
X116018361Y-106303000D01*
X116143803Y-106120256D01*
X116027822Y-105840224D01*
X115993103Y-105800422D01*
X116118013Y-105613480D01*
X116208216Y-105160000D01*
X116118013Y-104706520D01*
X115996726Y-104525000D01*
X116118013Y-104343480D01*
X116208216Y-103890000D01*
X116118013Y-103436520D01*
X115996726Y-103255000D01*
X116118013Y-103073480D01*
X116208216Y-102620000D01*
X116118013Y-102166520D01*
X115996726Y-101985000D01*
X116118013Y-101803480D01*
X116208216Y-101350000D01*
X116118013Y-100896520D01*
X115996726Y-100715000D01*
X116118013Y-100533480D01*
X116208216Y-100080000D01*
X116118013Y-99626520D01*
X115996726Y-99445000D01*
X116118013Y-99263480D01*
X116208216Y-98810000D01*
X116118013Y-98356520D01*
X115996726Y-98175000D01*
X116118013Y-97993480D01*
X116208216Y-97540000D01*
X116118013Y-97086520D01*
X115996726Y-96905000D01*
X116118013Y-96723480D01*
X116208216Y-96270000D01*
X142521784Y-96270000D01*
X142611987Y-96723480D01*
X142733274Y-96905000D01*
X142611987Y-97086520D01*
X142521784Y-97540000D01*
X142611987Y-97993480D01*
X142733274Y-98175000D01*
X142611987Y-98356520D01*
X142521784Y-98810000D01*
X142611987Y-99263480D01*
X142733274Y-99445000D01*
X142611987Y-99626520D01*
X142521784Y-100080000D01*
X142611987Y-100533480D01*
X142733274Y-100715000D01*
X142611987Y-100896520D01*
X142521784Y-101350000D01*
X142611987Y-101803480D01*
X142733274Y-101985000D01*
X142611987Y-102166520D01*
X142521784Y-102620000D01*
X142611987Y-103073480D01*
X142733274Y-103255000D01*
X142611987Y-103436520D01*
X142521784Y-103890000D01*
X142611987Y-104343480D01*
X142733274Y-104525000D01*
X142611987Y-104706520D01*
X142521784Y-105160000D01*
X142611987Y-105613480D01*
X142733274Y-105795000D01*
X142611987Y-105976520D01*
X142521784Y-106430000D01*
X142611987Y-106883480D01*
X142868862Y-107267922D01*
X143253304Y-107524797D01*
X143706784Y-107615000D01*
X143753216Y-107615000D01*
X144206696Y-107524797D01*
X144365000Y-107419022D01*
X144523304Y-107524797D01*
X144976784Y-107615000D01*
X145023216Y-107615000D01*
X145476696Y-107524797D01*
X145861138Y-107267922D01*
X146118013Y-106883480D01*
X146175381Y-106595069D01*
X148614830Y-106595069D01*
X148764471Y-106957229D01*
X149041314Y-107234555D01*
X149403212Y-107384828D01*
X149795069Y-107385170D01*
X150157229Y-107235529D01*
X150434555Y-106958686D01*
X150584828Y-106596788D01*
X150585170Y-106204931D01*
X150435529Y-105842771D01*
X150158686Y-105565445D01*
X149796788Y-105415172D01*
X149404931Y-105414830D01*
X149042771Y-105564471D01*
X148765445Y-105841314D01*
X148615172Y-106203212D01*
X148614830Y-106595069D01*
X146175381Y-106595069D01*
X146208216Y-106430000D01*
X146118013Y-105976520D01*
X145996726Y-105795000D01*
X146118013Y-105613480D01*
X146208216Y-105160000D01*
X146118013Y-104706520D01*
X145996726Y-104525000D01*
X146118013Y-104343480D01*
X146208216Y-103890000D01*
X146118013Y-103436520D01*
X145996726Y-103255000D01*
X146118013Y-103073480D01*
X146143555Y-102945069D01*
X148264830Y-102945069D01*
X148414471Y-103307229D01*
X148691314Y-103584555D01*
X149053212Y-103734828D01*
X149445069Y-103735170D01*
X149807229Y-103585529D01*
X150084555Y-103308686D01*
X150234828Y-102946788D01*
X150234835Y-102938069D01*
X169956830Y-102938069D01*
X170106471Y-103300229D01*
X170383314Y-103577555D01*
X170745212Y-103727828D01*
X171137069Y-103728170D01*
X171499229Y-103578529D01*
X171776555Y-103301686D01*
X171926828Y-102939788D01*
X171927170Y-102547931D01*
X171777529Y-102185771D01*
X171500686Y-101908445D01*
X171138788Y-101758172D01*
X170746931Y-101757830D01*
X170384771Y-101907471D01*
X170107445Y-102184314D01*
X169957172Y-102546212D01*
X169956830Y-102938069D01*
X150234835Y-102938069D01*
X150235170Y-102554931D01*
X150085529Y-102192771D01*
X149888172Y-101995069D01*
X156214830Y-101995069D01*
X156364471Y-102357229D01*
X156641314Y-102634555D01*
X157003212Y-102784828D01*
X157395069Y-102785170D01*
X157757229Y-102635529D01*
X158034555Y-102358686D01*
X158184828Y-101996788D01*
X158185170Y-101604931D01*
X158035529Y-101242771D01*
X157758686Y-100965445D01*
X157396788Y-100815172D01*
X157004931Y-100814830D01*
X156642771Y-100964471D01*
X156365445Y-101241314D01*
X156215172Y-101603212D01*
X156214830Y-101995069D01*
X149888172Y-101995069D01*
X149808686Y-101915445D01*
X149446788Y-101765172D01*
X149054931Y-101764830D01*
X148692771Y-101914471D01*
X148415445Y-102191314D01*
X148265172Y-102553212D01*
X148264830Y-102945069D01*
X146143555Y-102945069D01*
X146208216Y-102620000D01*
X146118013Y-102166520D01*
X145996726Y-101985000D01*
X146118013Y-101803480D01*
X146208216Y-101350000D01*
X146118013Y-100896520D01*
X145996726Y-100715000D01*
X146118013Y-100533480D01*
X146185327Y-100195069D01*
X146214830Y-100195069D01*
X146364471Y-100557229D01*
X146641314Y-100834555D01*
X147003212Y-100984828D01*
X147395069Y-100985170D01*
X147757229Y-100835529D01*
X148034555Y-100558686D01*
X148184828Y-100196788D01*
X148185170Y-99804931D01*
X148139777Y-99695069D01*
X157884830Y-99695069D01*
X158034471Y-100057229D01*
X158311314Y-100334555D01*
X158673212Y-100484828D01*
X159065069Y-100485170D01*
X159427229Y-100335529D01*
X159704555Y-100058686D01*
X159854828Y-99696788D01*
X159855170Y-99304931D01*
X159782093Y-99128069D01*
X170591830Y-99128069D01*
X170741471Y-99490229D01*
X170819000Y-99567893D01*
X170742445Y-99644314D01*
X170592172Y-100006212D01*
X170591830Y-100398069D01*
X170741471Y-100760229D01*
X171018314Y-101037555D01*
X171380212Y-101187828D01*
X171772069Y-101188170D01*
X172134229Y-101038529D01*
X172411555Y-100761686D01*
X172561828Y-100399788D01*
X172562170Y-100007931D01*
X172412529Y-99645771D01*
X172335000Y-99568107D01*
X172411555Y-99491686D01*
X172561828Y-99129788D01*
X172562170Y-98737931D01*
X172412529Y-98375771D01*
X172135686Y-98098445D01*
X171895026Y-97998514D01*
X174335628Y-97998514D01*
X174485269Y-98360674D01*
X174762112Y-98638000D01*
X175124010Y-98788273D01*
X175515867Y-98788615D01*
X175878027Y-98638974D01*
X176155353Y-98362131D01*
X176305626Y-98000233D01*
X176305968Y-97608376D01*
X176156327Y-97246216D01*
X175879484Y-96968890D01*
X175517586Y-96818617D01*
X175125729Y-96818275D01*
X174763569Y-96967916D01*
X174486243Y-97244759D01*
X174335970Y-97606657D01*
X174335628Y-97998514D01*
X171895026Y-97998514D01*
X171773788Y-97948172D01*
X171381931Y-97947830D01*
X171019771Y-98097471D01*
X170742445Y-98374314D01*
X170592172Y-98736212D01*
X170591830Y-99128069D01*
X159782093Y-99128069D01*
X159705529Y-98942771D01*
X159428686Y-98665445D01*
X159066788Y-98515172D01*
X158674931Y-98514830D01*
X158312771Y-98664471D01*
X158035445Y-98941314D01*
X157885172Y-99303212D01*
X157884830Y-99695069D01*
X148139777Y-99695069D01*
X148035529Y-99442771D01*
X147758686Y-99165445D01*
X147396788Y-99015172D01*
X147004931Y-99014830D01*
X146642771Y-99164471D01*
X146365445Y-99441314D01*
X146215172Y-99803212D01*
X146214830Y-100195069D01*
X146185327Y-100195069D01*
X146208216Y-100080000D01*
X146118013Y-99626520D01*
X145996726Y-99445000D01*
X146118013Y-99263480D01*
X146208216Y-98810000D01*
X146118013Y-98356520D01*
X145996726Y-98175000D01*
X146118013Y-97993480D01*
X146208216Y-97540000D01*
X146139605Y-97195069D01*
X155814830Y-97195069D01*
X155964471Y-97557229D01*
X156241314Y-97834555D01*
X156603212Y-97984828D01*
X156995069Y-97985170D01*
X157357229Y-97835529D01*
X157524113Y-97668936D01*
X157803212Y-97784828D01*
X158195069Y-97785170D01*
X158557229Y-97635529D01*
X158834555Y-97358686D01*
X158890868Y-97223069D01*
X165511830Y-97223069D01*
X165661471Y-97585229D01*
X165938314Y-97862555D01*
X166300212Y-98012828D01*
X166692069Y-98013170D01*
X167054229Y-97863529D01*
X167331555Y-97586686D01*
X167481828Y-97224788D01*
X167481829Y-97223069D01*
X169321830Y-97223069D01*
X169471471Y-97585229D01*
X169748314Y-97862555D01*
X170110212Y-98012828D01*
X170502069Y-98013170D01*
X170864229Y-97863529D01*
X171141555Y-97586686D01*
X171291828Y-97224788D01*
X171292170Y-96832931D01*
X171142529Y-96470771D01*
X170865686Y-96193445D01*
X170503788Y-96043172D01*
X170111931Y-96042830D01*
X169749771Y-96192471D01*
X169472445Y-96469314D01*
X169322172Y-96831212D01*
X169321830Y-97223069D01*
X167481829Y-97223069D01*
X167482170Y-96832931D01*
X167427872Y-96701519D01*
X167689229Y-96593529D01*
X167966555Y-96316686D01*
X168116828Y-95954788D01*
X168117170Y-95562931D01*
X167967529Y-95200771D01*
X167690686Y-94923445D01*
X167328788Y-94773172D01*
X166936931Y-94772830D01*
X166574771Y-94922471D01*
X166297445Y-95199314D01*
X166147172Y-95561212D01*
X166146830Y-95953069D01*
X166201128Y-96084481D01*
X165939771Y-96192471D01*
X165662445Y-96469314D01*
X165512172Y-96831212D01*
X165511830Y-97223069D01*
X158890868Y-97223069D01*
X158984828Y-96996788D01*
X158985170Y-96604931D01*
X158835529Y-96242771D01*
X158558686Y-95965445D01*
X158196788Y-95815172D01*
X157804931Y-95814830D01*
X157442771Y-95964471D01*
X157275887Y-96131064D01*
X156996788Y-96015172D01*
X156604931Y-96014830D01*
X156242771Y-96164471D01*
X155965445Y-96441314D01*
X155815172Y-96803212D01*
X155814830Y-97195069D01*
X146139605Y-97195069D01*
X146118013Y-97086520D01*
X145996726Y-96905000D01*
X146118013Y-96723480D01*
X146208216Y-96270000D01*
X146122167Y-95837402D01*
X146146431Y-95801890D01*
X146197440Y-95550000D01*
X146197440Y-94450000D01*
X146153162Y-94214683D01*
X146014090Y-93998559D01*
X145801890Y-93853569D01*
X145550000Y-93802560D01*
X144450000Y-93802560D01*
X144214683Y-93846838D01*
X144130295Y-93901140D01*
X144039745Y-93856186D01*
X143857000Y-93980563D01*
X143857000Y-94193089D01*
X143853569Y-94198110D01*
X143802560Y-94450000D01*
X143802560Y-95094815D01*
X143753216Y-95085000D01*
X143706784Y-95085000D01*
X143495636Y-95127000D01*
X142711639Y-95127000D01*
X142586197Y-95309744D01*
X142702178Y-95589776D01*
X142736897Y-95629578D01*
X142611987Y-95816520D01*
X142521784Y-96270000D01*
X116208216Y-96270000D01*
X116120904Y-95831052D01*
X116185000Y-95676310D01*
X116185000Y-95285750D01*
X116026250Y-95127000D01*
X115234364Y-95127000D01*
X115023216Y-95085000D01*
X114976784Y-95085000D01*
X114919023Y-95096489D01*
X114938216Y-95000000D01*
X114873000Y-94672138D01*
X114873000Y-93973750D01*
X115127000Y-93973750D01*
X115127000Y-94873000D01*
X116026250Y-94873000D01*
X116185000Y-94714250D01*
X116185000Y-94690256D01*
X142586197Y-94690256D01*
X142711639Y-94873000D01*
X143603000Y-94873000D01*
X143603000Y-93980563D01*
X143420255Y-93856186D01*
X143006114Y-94061788D01*
X142702178Y-94410224D01*
X142586197Y-94690256D01*
X116185000Y-94690256D01*
X116185000Y-94323690D01*
X116088327Y-94090301D01*
X115909698Y-93911673D01*
X115676309Y-93815000D01*
X115285750Y-93815000D01*
X115127000Y-93973750D01*
X114873000Y-93973750D01*
X114714250Y-93815000D01*
X114323691Y-93815000D01*
X114138615Y-93891661D01*
X113753216Y-93815000D01*
X113706784Y-93815000D01*
X113253304Y-93905203D01*
X112868862Y-94162078D01*
X112611987Y-94546520D01*
X112521784Y-95000000D01*
X100710000Y-95000000D01*
X100710000Y-93195069D01*
X158214830Y-93195069D01*
X158364471Y-93557229D01*
X158641314Y-93834555D01*
X158733870Y-93872987D01*
X158677445Y-93929314D01*
X158527172Y-94291212D01*
X158526830Y-94683069D01*
X158676471Y-95045229D01*
X158953314Y-95322555D01*
X159315212Y-95472828D01*
X159707069Y-95473170D01*
X160069229Y-95323529D01*
X160074698Y-95318069D01*
X164241830Y-95318069D01*
X164391471Y-95680229D01*
X164668314Y-95957555D01*
X165030212Y-96107828D01*
X165422069Y-96108170D01*
X165784229Y-95958529D01*
X166061555Y-95681686D01*
X166211828Y-95319788D01*
X166212170Y-94927931D01*
X166157872Y-94796519D01*
X166419229Y-94688529D01*
X166696555Y-94411686D01*
X166783018Y-94203458D01*
X167486987Y-94203458D01*
X167636628Y-94565618D01*
X167913471Y-94842944D01*
X168061265Y-94904313D01*
X168052172Y-94926212D01*
X168051830Y-95318069D01*
X168201471Y-95680229D01*
X168478314Y-95957555D01*
X168840212Y-96107828D01*
X169232069Y-96108170D01*
X169594229Y-95958529D01*
X169871555Y-95681686D01*
X170021828Y-95319788D01*
X170022170Y-94927931D01*
X169872529Y-94565771D01*
X169692087Y-94385014D01*
X169780705Y-94348398D01*
X170058031Y-94071555D01*
X170160973Y-93823641D01*
X185318400Y-93823641D01*
X185318400Y-93882359D01*
X185432474Y-94455848D01*
X185757330Y-94942029D01*
X186028172Y-95123000D01*
X185757330Y-95303971D01*
X185432474Y-95790152D01*
X185318400Y-96363641D01*
X185318400Y-96422359D01*
X185432474Y-96995848D01*
X185757330Y-97482029D01*
X186243511Y-97806885D01*
X186817000Y-97920959D01*
X187390489Y-97806885D01*
X187876670Y-97482029D01*
X187885805Y-97468358D01*
X187890238Y-97491917D01*
X188029310Y-97708041D01*
X188241510Y-97853031D01*
X188493400Y-97904040D01*
X190220600Y-97904040D01*
X190455917Y-97859762D01*
X190672041Y-97720690D01*
X190817031Y-97508490D01*
X190868040Y-97256600D01*
X190868040Y-95529400D01*
X190823762Y-95294083D01*
X190684690Y-95077959D01*
X190472490Y-94932969D01*
X190428655Y-94924092D01*
X190741526Y-94455848D01*
X190855600Y-93882359D01*
X190855600Y-93823641D01*
X190741526Y-93250152D01*
X190416670Y-92763971D01*
X190145828Y-92583000D01*
X190416670Y-92402029D01*
X190741526Y-91915848D01*
X190855600Y-91342359D01*
X190855600Y-91283641D01*
X190741526Y-90710152D01*
X190416670Y-90223971D01*
X189930489Y-89899115D01*
X189357000Y-89785041D01*
X188783511Y-89899115D01*
X188297330Y-90223971D01*
X188081336Y-90547228D01*
X188023821Y-90424510D01*
X187591947Y-90030312D01*
X187176026Y-89858042D01*
X186944000Y-89979183D01*
X186944000Y-91186000D01*
X186964000Y-91186000D01*
X186964000Y-91440000D01*
X186944000Y-91440000D01*
X186944000Y-91460000D01*
X186690000Y-91460000D01*
X186690000Y-91440000D01*
X185482531Y-91440000D01*
X185362032Y-91672027D01*
X185610179Y-92201490D01*
X186028161Y-92583008D01*
X185757330Y-92763971D01*
X185432474Y-93250152D01*
X185318400Y-93823641D01*
X170160973Y-93823641D01*
X170208304Y-93709657D01*
X170208646Y-93317800D01*
X170059005Y-92955640D01*
X169881744Y-92778069D01*
X173131830Y-92778069D01*
X173281471Y-93140229D01*
X173558314Y-93417555D01*
X173920212Y-93567828D01*
X174312069Y-93568170D01*
X174674229Y-93418529D01*
X174751893Y-93341000D01*
X174828314Y-93417555D01*
X175190212Y-93567828D01*
X175582069Y-93568170D01*
X175944229Y-93418529D01*
X176221555Y-93141686D01*
X176371828Y-92779788D01*
X176372170Y-92387931D01*
X176222529Y-92025771D01*
X175945686Y-91748445D01*
X175583788Y-91598172D01*
X175191931Y-91597830D01*
X174829771Y-91747471D01*
X174752107Y-91825000D01*
X174675686Y-91748445D01*
X174313788Y-91598172D01*
X173921931Y-91597830D01*
X173559771Y-91747471D01*
X173282445Y-92024314D01*
X173132172Y-92386212D01*
X173131830Y-92778069D01*
X169881744Y-92778069D01*
X169782162Y-92678314D01*
X169643259Y-92620636D01*
X169670895Y-92593048D01*
X169821168Y-92231150D01*
X169821510Y-91839293D01*
X169671869Y-91477133D01*
X169395026Y-91199807D01*
X169033128Y-91049534D01*
X168641271Y-91049192D01*
X168279111Y-91198833D01*
X168001785Y-91475676D01*
X167851512Y-91837574D01*
X167851170Y-92229431D01*
X168000811Y-92591591D01*
X168277654Y-92868917D01*
X168416557Y-92926595D01*
X168388921Y-92954183D01*
X168360225Y-93023292D01*
X168277088Y-93023219D01*
X167914928Y-93172860D01*
X167637602Y-93449703D01*
X167487329Y-93811601D01*
X167486987Y-94203458D01*
X166783018Y-94203458D01*
X166846828Y-94049788D01*
X166847170Y-93657931D01*
X166697529Y-93295771D01*
X166420686Y-93018445D01*
X166058788Y-92868172D01*
X165666931Y-92867830D01*
X165304771Y-93017471D01*
X165027445Y-93294314D01*
X164877172Y-93656212D01*
X164876830Y-94048069D01*
X164931128Y-94179481D01*
X164669771Y-94287471D01*
X164392445Y-94564314D01*
X164242172Y-94926212D01*
X164241830Y-95318069D01*
X160074698Y-95318069D01*
X160346555Y-95046686D01*
X160496828Y-94684788D01*
X160497170Y-94292931D01*
X160347529Y-93930771D01*
X160070686Y-93653445D01*
X159978130Y-93615013D01*
X160034555Y-93558686D01*
X160178642Y-93211686D01*
X160291314Y-93324555D01*
X160653212Y-93474828D01*
X161045069Y-93475170D01*
X161407229Y-93325529D01*
X161684555Y-93048686D01*
X161834828Y-92686788D01*
X161835170Y-92294931D01*
X161685529Y-91932771D01*
X161408686Y-91655445D01*
X161046788Y-91505172D01*
X160654931Y-91504830D01*
X160292771Y-91654471D01*
X160015445Y-91931314D01*
X159871358Y-92278314D01*
X159758686Y-92165445D01*
X159396788Y-92015172D01*
X159004931Y-92014830D01*
X158642771Y-92164471D01*
X158365445Y-92441314D01*
X158215172Y-92803212D01*
X158214830Y-93195069D01*
X100710000Y-93195069D01*
X100710000Y-90953973D01*
X185362032Y-90953973D01*
X185482531Y-91186000D01*
X186690000Y-91186000D01*
X186690000Y-89979183D01*
X186457974Y-89858042D01*
X186042053Y-90030312D01*
X185610179Y-90424510D01*
X185362032Y-90953973D01*
X100710000Y-90953973D01*
X100710000Y-89603069D01*
X172496830Y-89603069D01*
X172646471Y-89965229D01*
X172923314Y-90242555D01*
X173285212Y-90392828D01*
X173677069Y-90393170D01*
X173932182Y-90287760D01*
X174185215Y-90392828D01*
X174577072Y-90393170D01*
X174939232Y-90243529D01*
X175216558Y-89966686D01*
X175366831Y-89604788D01*
X175367173Y-89212931D01*
X175217532Y-88850771D01*
X174940689Y-88573445D01*
X174578791Y-88423172D01*
X174186934Y-88422830D01*
X173931821Y-88528240D01*
X173678788Y-88423172D01*
X173286931Y-88422830D01*
X172924771Y-88572471D01*
X172647445Y-88849314D01*
X172497172Y-89211212D01*
X172496830Y-89603069D01*
X100710000Y-89603069D01*
X100710000Y-88333069D01*
X160431830Y-88333069D01*
X160581471Y-88695229D01*
X160858314Y-88972555D01*
X161220212Y-89122828D01*
X161612069Y-89123170D01*
X161974229Y-88973529D01*
X162251555Y-88696686D01*
X162401828Y-88334788D01*
X162402170Y-87942931D01*
X162258437Y-87595069D01*
X169214830Y-87595069D01*
X169364471Y-87957229D01*
X169641314Y-88234555D01*
X170003212Y-88384828D01*
X170395069Y-88385170D01*
X170757229Y-88235529D01*
X171034555Y-87958686D01*
X171184828Y-87596788D01*
X171185170Y-87204931D01*
X171035529Y-86842771D01*
X170758686Y-86565445D01*
X170396788Y-86415172D01*
X170004931Y-86414830D01*
X169642771Y-86564471D01*
X169365445Y-86841314D01*
X169215172Y-87203212D01*
X169214830Y-87595069D01*
X162258437Y-87595069D01*
X162252529Y-87580771D01*
X161975686Y-87303445D01*
X161613788Y-87153172D01*
X161221931Y-87152830D01*
X160859771Y-87302471D01*
X160582445Y-87579314D01*
X160432172Y-87941212D01*
X160431830Y-88333069D01*
X100710000Y-88333069D01*
X100710000Y-84995069D01*
X168014830Y-84995069D01*
X168164471Y-85357229D01*
X168441314Y-85634555D01*
X168803212Y-85784828D01*
X169195069Y-85785170D01*
X169520463Y-85650720D01*
X169564471Y-85757229D01*
X169841314Y-86034555D01*
X170203212Y-86184828D01*
X170595069Y-86185170D01*
X170957229Y-86035529D01*
X171234555Y-85758686D01*
X171384828Y-85396788D01*
X171385170Y-85004931D01*
X171235529Y-84642771D01*
X170958686Y-84365445D01*
X170596788Y-84215172D01*
X170204931Y-84214830D01*
X169879537Y-84349280D01*
X169835529Y-84242771D01*
X169558686Y-83965445D01*
X169196788Y-83815172D01*
X168804931Y-83814830D01*
X168442771Y-83964471D01*
X168165445Y-84241314D01*
X168015172Y-84603212D01*
X168014830Y-84995069D01*
X100710000Y-84995069D01*
X100710000Y-79443069D01*
X164201829Y-79443069D01*
X164351470Y-79805229D01*
X164628313Y-80082555D01*
X164990211Y-80232828D01*
X165382068Y-80233170D01*
X165744228Y-80083529D01*
X166021554Y-79806686D01*
X166171827Y-79444788D01*
X166172169Y-79052931D01*
X166022528Y-78690771D01*
X165745685Y-78413445D01*
X165383787Y-78263172D01*
X164991930Y-78262830D01*
X164629770Y-78412471D01*
X164352444Y-78689314D01*
X164202171Y-79051212D01*
X164201829Y-79443069D01*
X100710000Y-79443069D01*
X100710000Y-76903069D01*
X161701830Y-76903069D01*
X161851471Y-77265229D01*
X162128314Y-77542555D01*
X162490212Y-77692828D01*
X162882069Y-77693170D01*
X163244229Y-77543529D01*
X163521555Y-77266686D01*
X163671828Y-76904788D01*
X163672170Y-76512931D01*
X163522529Y-76150771D01*
X163245686Y-75873445D01*
X162883788Y-75723172D01*
X162491931Y-75722830D01*
X162129771Y-75872471D01*
X161852445Y-76149314D01*
X161702172Y-76511212D01*
X161701830Y-76903069D01*
X100710000Y-76903069D01*
X100710000Y-73093069D01*
X164876830Y-73093069D01*
X165026471Y-73455229D01*
X165303314Y-73732555D01*
X165665212Y-73882828D01*
X166057069Y-73883170D01*
X166419229Y-73733529D01*
X166696555Y-73456686D01*
X166846828Y-73094788D01*
X166846829Y-73093069D01*
X172496830Y-73093069D01*
X172646471Y-73455229D01*
X172923314Y-73732555D01*
X173285212Y-73882828D01*
X173677069Y-73883170D01*
X174039229Y-73733529D01*
X174316555Y-73456686D01*
X174434605Y-73172390D01*
X174551471Y-73455229D01*
X174828314Y-73732555D01*
X175083242Y-73838410D01*
X175187868Y-74091626D01*
X175464711Y-74368952D01*
X175826609Y-74519225D01*
X176218466Y-74519567D01*
X176580626Y-74369926D01*
X176857952Y-74093083D01*
X177008225Y-73731185D01*
X177008567Y-73339328D01*
X176858926Y-72977168D01*
X176582083Y-72699842D01*
X176327155Y-72593987D01*
X176222529Y-72340771D01*
X175945686Y-72063445D01*
X175583788Y-71913172D01*
X175191931Y-71912830D01*
X174829771Y-72062471D01*
X174552445Y-72339314D01*
X174434395Y-72623610D01*
X174317529Y-72340771D01*
X174040686Y-72063445D01*
X173678788Y-71913172D01*
X173286931Y-71912830D01*
X172924771Y-72062471D01*
X172647445Y-72339314D01*
X172497172Y-72701212D01*
X172496830Y-73093069D01*
X166846829Y-73093069D01*
X166847170Y-72702931D01*
X166697529Y-72340771D01*
X166420686Y-72063445D01*
X166058788Y-71913172D01*
X165666931Y-71912830D01*
X165304771Y-72062471D01*
X165027445Y-72339314D01*
X164877172Y-72701212D01*
X164876830Y-73093069D01*
X100710000Y-73093069D01*
X100710000Y-71595069D01*
X107014830Y-71595069D01*
X107164471Y-71957229D01*
X107441314Y-72234555D01*
X107803212Y-72384828D01*
X108195069Y-72385170D01*
X108557229Y-72235529D01*
X108834555Y-71958686D01*
X108984828Y-71596788D01*
X108985170Y-71204931D01*
X108835529Y-70842771D01*
X108778013Y-70785155D01*
X108795069Y-70785170D01*
X109157229Y-70635529D01*
X109434555Y-70358686D01*
X109584828Y-69996788D01*
X109585170Y-69604931D01*
X109435529Y-69242771D01*
X109158686Y-68965445D01*
X108796788Y-68815172D01*
X108404931Y-68814830D01*
X108042771Y-68964471D01*
X107765445Y-69241314D01*
X107615172Y-69603212D01*
X107614830Y-69995069D01*
X107764471Y-70357229D01*
X107821987Y-70414845D01*
X107804931Y-70414830D01*
X107442771Y-70564471D01*
X107165445Y-70841314D01*
X107015172Y-71203212D01*
X107014830Y-71595069D01*
X100710000Y-71595069D01*
X100710000Y-68013069D01*
X182656830Y-68013069D01*
X182806471Y-68375229D01*
X183083314Y-68652555D01*
X183445212Y-68802828D01*
X183837069Y-68803170D01*
X184199229Y-68653529D01*
X184476555Y-68376686D01*
X184626828Y-68014788D01*
X184627170Y-67622931D01*
X184477529Y-67260771D01*
X184200686Y-66983445D01*
X183838788Y-66833172D01*
X183446931Y-66832830D01*
X183084771Y-66982471D01*
X182807445Y-67259314D01*
X182657172Y-67621212D01*
X182656830Y-68013069D01*
X100710000Y-68013069D01*
X100710000Y-62445069D01*
X138514830Y-62445069D01*
X138664471Y-62807229D01*
X138941314Y-63084555D01*
X139303212Y-63234828D01*
X139695069Y-63235170D01*
X140057229Y-63085529D01*
X140334555Y-62808686D01*
X140484828Y-62446788D01*
X140485170Y-62054931D01*
X140335529Y-61692771D01*
X140058686Y-61415445D01*
X139696788Y-61265172D01*
X139304931Y-61264830D01*
X138942771Y-61414471D01*
X138665445Y-61691314D01*
X138515172Y-62053212D01*
X138514830Y-62445069D01*
X100710000Y-62445069D01*
X100710000Y-57443000D01*
X117374560Y-57443000D01*
X117374560Y-59143000D01*
X117418838Y-59378317D01*
X117557910Y-59594441D01*
X117770110Y-59739431D01*
X117826454Y-59750841D01*
X117821946Y-59753853D01*
X117500039Y-60235622D01*
X117387000Y-60803907D01*
X117387000Y-60862093D01*
X117500039Y-61430378D01*
X117821946Y-61912147D01*
X118303715Y-62234054D01*
X118872000Y-62347093D01*
X119440285Y-62234054D01*
X119922054Y-61912147D01*
X120142000Y-61582974D01*
X120361946Y-61912147D01*
X120843715Y-62234054D01*
X121412000Y-62347093D01*
X121980285Y-62234054D01*
X122462054Y-61912147D01*
X122682000Y-61582974D01*
X122901946Y-61912147D01*
X123383715Y-62234054D01*
X123952000Y-62347093D01*
X124520285Y-62234054D01*
X125002054Y-61912147D01*
X125222000Y-61582974D01*
X125441946Y-61912147D01*
X125923715Y-62234054D01*
X126492000Y-62347093D01*
X127060285Y-62234054D01*
X127542054Y-61912147D01*
X127762000Y-61582974D01*
X127981946Y-61912147D01*
X128463715Y-62234054D01*
X129032000Y-62347093D01*
X129600285Y-62234054D01*
X130082054Y-61912147D01*
X130302000Y-61582974D01*
X130521946Y-61912147D01*
X131003715Y-62234054D01*
X131572000Y-62347093D01*
X132140285Y-62234054D01*
X132622054Y-61912147D01*
X132842000Y-61582974D01*
X133061946Y-61912147D01*
X133543715Y-62234054D01*
X134112000Y-62347093D01*
X134680285Y-62234054D01*
X135162054Y-61912147D01*
X135382000Y-61582974D01*
X135601946Y-61912147D01*
X136083715Y-62234054D01*
X136652000Y-62347093D01*
X137220285Y-62234054D01*
X137702054Y-61912147D01*
X138023961Y-61430378D01*
X138137000Y-60862093D01*
X138137000Y-60803907D01*
X138023961Y-60235622D01*
X137702054Y-59753853D01*
X137416422Y-59563000D01*
X137702054Y-59372147D01*
X138023961Y-58890378D01*
X138137000Y-58322093D01*
X138137000Y-58263907D01*
X138023961Y-57695622D01*
X137855165Y-57443000D01*
X154204560Y-57443000D01*
X154204560Y-59143000D01*
X154248838Y-59378317D01*
X154387910Y-59594441D01*
X154600110Y-59739431D01*
X154656454Y-59750841D01*
X154651946Y-59753853D01*
X154330039Y-60235622D01*
X154217000Y-60803907D01*
X154217000Y-60862093D01*
X154330039Y-61430378D01*
X154651946Y-61912147D01*
X155133715Y-62234054D01*
X155702000Y-62347093D01*
X156270285Y-62234054D01*
X156752054Y-61912147D01*
X156972000Y-61582974D01*
X157191946Y-61912147D01*
X157673715Y-62234054D01*
X158242000Y-62347093D01*
X158810285Y-62234054D01*
X159292054Y-61912147D01*
X159512000Y-61582974D01*
X159731946Y-61912147D01*
X160213715Y-62234054D01*
X160782000Y-62347093D01*
X161350285Y-62234054D01*
X161832054Y-61912147D01*
X162052000Y-61582974D01*
X162271946Y-61912147D01*
X162753715Y-62234054D01*
X163322000Y-62347093D01*
X163890285Y-62234054D01*
X164372054Y-61912147D01*
X164592000Y-61582974D01*
X164811946Y-61912147D01*
X165293715Y-62234054D01*
X165862000Y-62347093D01*
X166430285Y-62234054D01*
X166912054Y-61912147D01*
X167132000Y-61582974D01*
X167351946Y-61912147D01*
X167833715Y-62234054D01*
X168402000Y-62347093D01*
X168970285Y-62234054D01*
X169452054Y-61912147D01*
X169672000Y-61582974D01*
X169891946Y-61912147D01*
X170373715Y-62234054D01*
X170942000Y-62347093D01*
X171510285Y-62234054D01*
X171992054Y-61912147D01*
X172212000Y-61582974D01*
X172431946Y-61912147D01*
X172913715Y-62234054D01*
X173482000Y-62347093D01*
X174050285Y-62234054D01*
X174532054Y-61912147D01*
X174752000Y-61582974D01*
X174971946Y-61912147D01*
X175453715Y-62234054D01*
X176022000Y-62347093D01*
X176590285Y-62234054D01*
X177072054Y-61912147D01*
X177292000Y-61582974D01*
X177511946Y-61912147D01*
X177993715Y-62234054D01*
X178562000Y-62347093D01*
X179130285Y-62234054D01*
X179612054Y-61912147D01*
X179933961Y-61430378D01*
X180047000Y-60862093D01*
X180047000Y-60803907D01*
X179933961Y-60235622D01*
X179612054Y-59753853D01*
X179326422Y-59563000D01*
X179612054Y-59372147D01*
X179933961Y-58890378D01*
X180047000Y-58322093D01*
X180047000Y-58263907D01*
X179933961Y-57695622D01*
X179612054Y-57213853D01*
X179130285Y-56891946D01*
X178562000Y-56778907D01*
X177993715Y-56891946D01*
X177511946Y-57213853D01*
X177292000Y-57543026D01*
X177072054Y-57213853D01*
X176590285Y-56891946D01*
X176022000Y-56778907D01*
X175453715Y-56891946D01*
X174971946Y-57213853D01*
X174752000Y-57543026D01*
X174532054Y-57213853D01*
X174050285Y-56891946D01*
X173482000Y-56778907D01*
X172913715Y-56891946D01*
X172431946Y-57213853D01*
X172212000Y-57543026D01*
X171992054Y-57213853D01*
X171510285Y-56891946D01*
X170942000Y-56778907D01*
X170373715Y-56891946D01*
X169891946Y-57213853D01*
X169672000Y-57543026D01*
X169452054Y-57213853D01*
X168970285Y-56891946D01*
X168402000Y-56778907D01*
X167833715Y-56891946D01*
X167351946Y-57213853D01*
X167132000Y-57543026D01*
X166912054Y-57213853D01*
X166430285Y-56891946D01*
X165862000Y-56778907D01*
X165293715Y-56891946D01*
X164811946Y-57213853D01*
X164592000Y-57543026D01*
X164372054Y-57213853D01*
X163890285Y-56891946D01*
X163322000Y-56778907D01*
X162753715Y-56891946D01*
X162271946Y-57213853D01*
X162052000Y-57543026D01*
X161832054Y-57213853D01*
X161350285Y-56891946D01*
X160782000Y-56778907D01*
X160213715Y-56891946D01*
X159731946Y-57213853D01*
X159504298Y-57554553D01*
X159437183Y-57411642D01*
X159008924Y-57021355D01*
X158598890Y-56851524D01*
X158369000Y-56972845D01*
X158369000Y-58166000D01*
X158389000Y-58166000D01*
X158389000Y-58420000D01*
X158369000Y-58420000D01*
X158369000Y-58440000D01*
X158115000Y-58440000D01*
X158115000Y-58420000D01*
X158095000Y-58420000D01*
X158095000Y-58166000D01*
X158115000Y-58166000D01*
X158115000Y-56972845D01*
X157885110Y-56851524D01*
X157475076Y-57021355D01*
X157172063Y-57297501D01*
X157155162Y-57207683D01*
X157016090Y-56991559D01*
X156803890Y-56846569D01*
X156552000Y-56795560D01*
X154852000Y-56795560D01*
X154616683Y-56839838D01*
X154400559Y-56978910D01*
X154255569Y-57191110D01*
X154204560Y-57443000D01*
X137855165Y-57443000D01*
X137702054Y-57213853D01*
X137220285Y-56891946D01*
X136652000Y-56778907D01*
X136083715Y-56891946D01*
X135601946Y-57213853D01*
X135382000Y-57543026D01*
X135162054Y-57213853D01*
X134680285Y-56891946D01*
X134112000Y-56778907D01*
X133543715Y-56891946D01*
X133061946Y-57213853D01*
X132842000Y-57543026D01*
X132622054Y-57213853D01*
X132140285Y-56891946D01*
X131572000Y-56778907D01*
X131003715Y-56891946D01*
X130521946Y-57213853D01*
X130302000Y-57543026D01*
X130082054Y-57213853D01*
X129634362Y-56914715D01*
X129803212Y-56984828D01*
X130195069Y-56985170D01*
X130557229Y-56835529D01*
X130834555Y-56558686D01*
X130984828Y-56196788D01*
X130984829Y-56195069D01*
X132014830Y-56195069D01*
X132164471Y-56557229D01*
X132441314Y-56834555D01*
X132803212Y-56984828D01*
X133195069Y-56985170D01*
X133557229Y-56835529D01*
X133834555Y-56558686D01*
X133984828Y-56196788D01*
X133985170Y-55804931D01*
X133835529Y-55442771D01*
X133558686Y-55165445D01*
X133196788Y-55015172D01*
X132804931Y-55014830D01*
X132442771Y-55164471D01*
X132165445Y-55441314D01*
X132015172Y-55803212D01*
X132014830Y-56195069D01*
X130984829Y-56195069D01*
X130985170Y-55804931D01*
X130835529Y-55442771D01*
X130558686Y-55165445D01*
X130196788Y-55015172D01*
X129804931Y-55014830D01*
X129442771Y-55164471D01*
X129165445Y-55441314D01*
X129015172Y-55803212D01*
X129014830Y-56195069D01*
X129164471Y-56557229D01*
X129441314Y-56834555D01*
X129560440Y-56884020D01*
X129032000Y-56778907D01*
X128463715Y-56891946D01*
X127981946Y-57213853D01*
X127762000Y-57543026D01*
X127542054Y-57213853D01*
X127060285Y-56891946D01*
X126492000Y-56778907D01*
X125923715Y-56891946D01*
X125441946Y-57213853D01*
X125222000Y-57543026D01*
X125002054Y-57213853D01*
X124520285Y-56891946D01*
X123952000Y-56778907D01*
X123383715Y-56891946D01*
X122901946Y-57213853D01*
X122682000Y-57543026D01*
X122462054Y-57213853D01*
X121980285Y-56891946D01*
X121412000Y-56778907D01*
X120843715Y-56891946D01*
X120361946Y-57213853D01*
X120334150Y-57255452D01*
X120325162Y-57207683D01*
X120186090Y-56991559D01*
X119973890Y-56846569D01*
X119722000Y-56795560D01*
X118022000Y-56795560D01*
X117786683Y-56839838D01*
X117570559Y-56978910D01*
X117425569Y-57191110D01*
X117374560Y-57443000D01*
X100710000Y-57443000D01*
X100710000Y-54861442D01*
X103164509Y-54861442D01*
X103595202Y-55903801D01*
X104392005Y-56701995D01*
X105433610Y-57134507D01*
X106561442Y-57135491D01*
X107603801Y-56704798D01*
X108401995Y-55907995D01*
X108834507Y-54866390D01*
X108834511Y-54861442D01*
X189164509Y-54861442D01*
X189595202Y-55903801D01*
X190392005Y-56701995D01*
X191433610Y-57134507D01*
X192561442Y-57135491D01*
X193603801Y-56704798D01*
X194401995Y-55907995D01*
X194834507Y-54866390D01*
X194835491Y-53738558D01*
X194404798Y-52696199D01*
X193607995Y-51898005D01*
X192566390Y-51465493D01*
X191438558Y-51464509D01*
X190396199Y-51895202D01*
X189598005Y-52692005D01*
X189165493Y-53733610D01*
X189164509Y-54861442D01*
X108834511Y-54861442D01*
X108835491Y-53738558D01*
X108445651Y-52795069D01*
X125014830Y-52795069D01*
X125164471Y-53157229D01*
X125441314Y-53434555D01*
X125803212Y-53584828D01*
X126195069Y-53585170D01*
X126557229Y-53435529D01*
X126834555Y-53158686D01*
X126984828Y-52796788D01*
X126985170Y-52404931D01*
X126835529Y-52042771D01*
X126558686Y-51765445D01*
X126196788Y-51615172D01*
X125804931Y-51614830D01*
X125442771Y-51764471D01*
X125165445Y-52041314D01*
X125015172Y-52403212D01*
X125014830Y-52795069D01*
X108445651Y-52795069D01*
X108404798Y-52696199D01*
X107607995Y-51898005D01*
X106566390Y-51465493D01*
X105438558Y-51464509D01*
X104396199Y-51895202D01*
X103598005Y-52692005D01*
X103165493Y-53733610D01*
X103164509Y-54861442D01*
X100710000Y-54861442D01*
X100710000Y-50710000D01*
X197290000Y-50710000D01*
X197290000Y-133290000D01*
M02*
