G04 #@! TF.FileFunction,Paste,Top*
%FSLAX46Y46*%
G04 Gerber Fmt 4.6, Leading zero omitted, Abs format (unit mm)*
G04 Created by KiCad (PCBNEW 4.0.6) date Friday, August 25, 2017 'AMt' 01:12:18 AM*
%MOMM*%
%LPD*%
G01*
G04 APERTURE LIST*
%ADD10C,0.100000*%
%ADD11R,1.600000X0.550000*%
%ADD12R,0.550000X1.600000*%
%ADD13R,0.500000X0.900000*%
%ADD14R,1.300000X1.550000*%
%ADD15R,0.800000X0.750000*%
%ADD16R,0.750000X0.800000*%
%ADD17R,0.797560X0.797560*%
%ADD18R,0.900000X0.500000*%
%ADD19R,1.550000X0.600000*%
G04 APERTURE END LIST*
D10*
D11*
X163517000Y-91688000D03*
X163517000Y-92488000D03*
X163517000Y-93288000D03*
X163517000Y-94088000D03*
X163517000Y-94888000D03*
X163517000Y-95688000D03*
X163517000Y-96488000D03*
X163517000Y-97288000D03*
D12*
X164967000Y-98738000D03*
X165767000Y-98738000D03*
X166567000Y-98738000D03*
X167367000Y-98738000D03*
X168167000Y-98738000D03*
X168967000Y-98738000D03*
X169767000Y-98738000D03*
X170567000Y-98738000D03*
D11*
X172017000Y-97288000D03*
X172017000Y-96488000D03*
X172017000Y-95688000D03*
X172017000Y-94888000D03*
X172017000Y-94088000D03*
X172017000Y-93288000D03*
X172017000Y-92488000D03*
X172017000Y-91688000D03*
D12*
X170567000Y-90238000D03*
X169767000Y-90238000D03*
X168967000Y-90238000D03*
X168167000Y-90238000D03*
X167367000Y-90238000D03*
X166567000Y-90238000D03*
X165767000Y-90238000D03*
X164967000Y-90238000D03*
D13*
X170700000Y-72390000D03*
X172200000Y-72390000D03*
D14*
X185837000Y-81318000D03*
X185837000Y-73368000D03*
X190337000Y-81318000D03*
X190337000Y-73368000D03*
D15*
X176820000Y-96210000D03*
X175320000Y-96210000D03*
D16*
X160782000Y-95873000D03*
X160782000Y-94373000D03*
D15*
X176137000Y-93853000D03*
X174637000Y-93853000D03*
D16*
X163957000Y-76823000D03*
X163957000Y-75323000D03*
X161417000Y-104533000D03*
X161417000Y-106033000D03*
X170307000Y-106033000D03*
X170307000Y-104533000D03*
D17*
X189242700Y-67818000D03*
X190741300Y-67818000D03*
D13*
X169787000Y-80518000D03*
X168287000Y-80518000D03*
X162457000Y-88138000D03*
X163957000Y-88138000D03*
X185432000Y-67818000D03*
X186932000Y-67818000D03*
D18*
X189357000Y-123178000D03*
X189357000Y-121678000D03*
D19*
X166337000Y-74168000D03*
X166337000Y-75438000D03*
X166337000Y-76708000D03*
X166337000Y-77978000D03*
X171737000Y-77978000D03*
X171737000Y-76708000D03*
X171737000Y-75438000D03*
X171737000Y-74168000D03*
M02*
