G04 #@! TF.FileFunction,Copper,L1,Top,Signal*
%FSLAX46Y46*%
G04 Gerber Fmt 4.6, Leading zero omitted, Abs format (unit mm)*
G04 Created by KiCad (PCBNEW 4.0.6) date Friday, August 25, 2017 'AMt' 01:12:18 AM*
%MOMM*%
%LPD*%
G01*
G04 APERTURE LIST*
%ADD10C,0.100000*%
%ADD11R,1.600000X0.550000*%
%ADD12R,0.550000X1.600000*%
%ADD13R,0.500000X0.900000*%
%ADD14R,1.700000X1.700000*%
%ADD15O,1.700000X1.700000*%
%ADD16R,1.727200X1.727200*%
%ADD17O,1.727200X1.727200*%
%ADD18R,1.300000X1.550000*%
%ADD19R,0.800000X0.750000*%
%ADD20R,0.750000X0.800000*%
%ADD21R,0.797560X0.797560*%
%ADD22R,0.900000X0.500000*%
%ADD23R,1.550000X0.600000*%
%ADD24R,1.800000X1.200000*%
%ADD25R,1.100000X1.100000*%
%ADD26O,1.100000X1.100000*%
%ADD27C,4.400000*%
%ADD28C,0.700000*%
%ADD29C,0.250000*%
G04 APERTURE END LIST*
D10*
D11*
X163517000Y-91688000D03*
X163517000Y-92488000D03*
X163517000Y-93288000D03*
X163517000Y-94088000D03*
X163517000Y-94888000D03*
X163517000Y-95688000D03*
X163517000Y-96488000D03*
X163517000Y-97288000D03*
D12*
X164967000Y-98738000D03*
X165767000Y-98738000D03*
X166567000Y-98738000D03*
X167367000Y-98738000D03*
X168167000Y-98738000D03*
X168967000Y-98738000D03*
X169767000Y-98738000D03*
X170567000Y-98738000D03*
D11*
X172017000Y-97288000D03*
X172017000Y-96488000D03*
X172017000Y-95688000D03*
X172017000Y-94888000D03*
X172017000Y-94088000D03*
X172017000Y-93288000D03*
X172017000Y-92488000D03*
X172017000Y-91688000D03*
D12*
X170567000Y-90238000D03*
X169767000Y-90238000D03*
X168967000Y-90238000D03*
X168167000Y-90238000D03*
X167367000Y-90238000D03*
X166567000Y-90238000D03*
X165767000Y-90238000D03*
X164967000Y-90238000D03*
D13*
X170700000Y-72390000D03*
X172200000Y-72390000D03*
D14*
X155702000Y-123698000D03*
D15*
X155702000Y-126238000D03*
X158242000Y-123698000D03*
X158242000Y-126238000D03*
X160782000Y-123698000D03*
X160782000Y-126238000D03*
X163322000Y-123698000D03*
X163322000Y-126238000D03*
X165862000Y-123698000D03*
X165862000Y-126238000D03*
X168402000Y-123698000D03*
X168402000Y-126238000D03*
X170942000Y-123698000D03*
X170942000Y-126238000D03*
X173482000Y-123698000D03*
X173482000Y-126238000D03*
X176022000Y-123698000D03*
X176022000Y-126238000D03*
X178562000Y-123698000D03*
X178562000Y-126238000D03*
D14*
X155702000Y-58293000D03*
D15*
X155702000Y-60833000D03*
X158242000Y-58293000D03*
X158242000Y-60833000D03*
X160782000Y-58293000D03*
X160782000Y-60833000D03*
X163322000Y-58293000D03*
X163322000Y-60833000D03*
X165862000Y-58293000D03*
X165862000Y-60833000D03*
X168402000Y-58293000D03*
X168402000Y-60833000D03*
X170942000Y-58293000D03*
X170942000Y-60833000D03*
X173482000Y-58293000D03*
X173482000Y-60833000D03*
X176022000Y-58293000D03*
X176022000Y-60833000D03*
X178562000Y-58293000D03*
X178562000Y-60833000D03*
D16*
X189357000Y-96393000D03*
D17*
X186817000Y-96393000D03*
X189357000Y-93853000D03*
X186817000Y-93853000D03*
X189357000Y-91313000D03*
X186817000Y-91313000D03*
D18*
X185837000Y-81318000D03*
X185837000Y-73368000D03*
X190337000Y-81318000D03*
X190337000Y-73368000D03*
D14*
X186817000Y-117983000D03*
D15*
X189357000Y-117983000D03*
X186817000Y-115443000D03*
X189357000Y-115443000D03*
X186817000Y-112903000D03*
X189357000Y-112903000D03*
X186817000Y-110363000D03*
X189357000Y-110363000D03*
D19*
X176820000Y-96210000D03*
X175320000Y-96210000D03*
D20*
X160782000Y-95873000D03*
X160782000Y-94373000D03*
D19*
X176137000Y-93853000D03*
X174637000Y-93853000D03*
D20*
X163957000Y-76823000D03*
X163957000Y-75323000D03*
X161417000Y-104533000D03*
X161417000Y-106033000D03*
X170307000Y-106033000D03*
X170307000Y-104533000D03*
D21*
X189242700Y-67818000D03*
X190741300Y-67818000D03*
D14*
X118872000Y-58293000D03*
D15*
X118872000Y-60833000D03*
X121412000Y-58293000D03*
X121412000Y-60833000D03*
X123952000Y-58293000D03*
X123952000Y-60833000D03*
X126492000Y-58293000D03*
X126492000Y-60833000D03*
X129032000Y-58293000D03*
X129032000Y-60833000D03*
X131572000Y-58293000D03*
X131572000Y-60833000D03*
X134112000Y-58293000D03*
X134112000Y-60833000D03*
X136652000Y-58293000D03*
X136652000Y-60833000D03*
D13*
X169787000Y-80518000D03*
X168287000Y-80518000D03*
X162457000Y-88138000D03*
X163957000Y-88138000D03*
X185432000Y-67818000D03*
X186932000Y-67818000D03*
D22*
X189357000Y-123178000D03*
X189357000Y-121678000D03*
D23*
X166337000Y-74168000D03*
X166337000Y-75438000D03*
X166337000Y-76708000D03*
X166337000Y-77978000D03*
X171737000Y-77978000D03*
X171737000Y-76708000D03*
X171737000Y-75438000D03*
X171737000Y-74168000D03*
D24*
X163862000Y-106483000D03*
X167862000Y-106483000D03*
X167862000Y-104083000D03*
X163862000Y-104083000D03*
D25*
X145000000Y-95000000D03*
D26*
X143730000Y-95000000D03*
X145000000Y-96270000D03*
X143730000Y-96270000D03*
X145000000Y-97540000D03*
X143730000Y-97540000D03*
X145000000Y-98810000D03*
X143730000Y-98810000D03*
X145000000Y-100080000D03*
X143730000Y-100080000D03*
X145000000Y-101350000D03*
X143730000Y-101350000D03*
X145000000Y-102620000D03*
X143730000Y-102620000D03*
X145000000Y-103890000D03*
X143730000Y-103890000D03*
X145000000Y-105160000D03*
X143730000Y-105160000D03*
X145000000Y-106430000D03*
X143730000Y-106430000D03*
D25*
X115000000Y-95000000D03*
D26*
X113730000Y-95000000D03*
X115000000Y-96270000D03*
X113730000Y-96270000D03*
X115000000Y-97540000D03*
X113730000Y-97540000D03*
X115000000Y-98810000D03*
X113730000Y-98810000D03*
X115000000Y-100080000D03*
X113730000Y-100080000D03*
X115000000Y-101350000D03*
X113730000Y-101350000D03*
X115000000Y-102620000D03*
X113730000Y-102620000D03*
X115000000Y-103890000D03*
X113730000Y-103890000D03*
X115000000Y-105160000D03*
X113730000Y-105160000D03*
X115000000Y-106430000D03*
X113730000Y-106430000D03*
D27*
X192000000Y-54300000D03*
X192000000Y-129700000D03*
X106000000Y-129700000D03*
X106000000Y-54300000D03*
D28*
X178309229Y-96224766D03*
X178296946Y-94905103D03*
X118000000Y-106600000D03*
X141200000Y-94600000D03*
X117400000Y-94600000D03*
X169672000Y-72263000D03*
X162687000Y-75438000D03*
X159512000Y-95758000D03*
X177292000Y-93853000D03*
X192532000Y-67818000D03*
X189992000Y-77343000D03*
X160147000Y-104648000D03*
X171577000Y-106553000D03*
X175320798Y-97803445D03*
X147200000Y-100000000D03*
X161417000Y-88138000D03*
X162687000Y-76708000D03*
X159512000Y-94488000D03*
X175387000Y-92583000D03*
X183642000Y-67818000D03*
X174382003Y-89408000D03*
X174117000Y-92583000D03*
X171577000Y-100203000D03*
X162185202Y-120705202D03*
X169037000Y-95123000D03*
X170307000Y-97028000D03*
X168836340Y-92034362D03*
X193597265Y-115801572D03*
X169223476Y-93512869D03*
X168472157Y-94008389D03*
X160850000Y-92490000D03*
X158870000Y-99500000D03*
X158880000Y-108220000D03*
X158880000Y-109680000D03*
X156390000Y-115210000D03*
X156500000Y-116890000D03*
X165730477Y-108192092D03*
X171150000Y-108030000D03*
X184912000Y-110363000D03*
X170942000Y-102743000D03*
X165227000Y-95123000D03*
X165186999Y-79248000D03*
X167132000Y-95758000D03*
X165862000Y-72898000D03*
X165862000Y-93853000D03*
X166497000Y-97028000D03*
X169000000Y-84800000D03*
X156800000Y-97000000D03*
X157200000Y-101800000D03*
X176023397Y-73534397D03*
X175387000Y-72898000D03*
X171577000Y-98933000D03*
X173482000Y-89408000D03*
X173482000Y-72898000D03*
X108000000Y-71400000D03*
X107920000Y-100080000D03*
X158000000Y-96800000D03*
X157800000Y-110200000D03*
X108600000Y-69800000D03*
X108600000Y-101350000D03*
X109600000Y-102800000D03*
X126000000Y-52600000D03*
X139500000Y-62250000D03*
X170400000Y-85200000D03*
X170200000Y-87400000D03*
X130000000Y-56000000D03*
X133000000Y-56000000D03*
X149250000Y-102750000D03*
X159200000Y-93000000D03*
X149600000Y-106400000D03*
D29*
X178294463Y-96210000D02*
X178309229Y-96224766D01*
X176820000Y-96210000D02*
X178294463Y-96210000D01*
X178279843Y-94888000D02*
X178296946Y-94905103D01*
X172017000Y-94888000D02*
X178279843Y-94888000D01*
X115000000Y-106430000D02*
X117830000Y-106430000D01*
X117830000Y-106430000D02*
X118000000Y-106600000D01*
X143730000Y-95000000D02*
X141600000Y-95000000D01*
X141600000Y-95000000D02*
X141200000Y-94600000D01*
X115000000Y-95000000D02*
X117000000Y-95000000D01*
X117000000Y-95000000D02*
X117400000Y-94600000D01*
X170700000Y-72390000D02*
X169799000Y-72390000D01*
X169799000Y-72390000D02*
X169672000Y-72263000D01*
X163957000Y-75323000D02*
X162802000Y-75323000D01*
X162802000Y-75323000D02*
X162687000Y-75438000D01*
X166337000Y-75438000D02*
X164072000Y-75438000D01*
X164072000Y-75438000D02*
X163957000Y-75323000D01*
X160782000Y-95873000D02*
X159627000Y-95873000D01*
X159627000Y-95873000D02*
X159512000Y-95758000D01*
X163517000Y-94888000D02*
X161742000Y-94888000D01*
X161742000Y-94888000D02*
X160782000Y-95848000D01*
X160782000Y-95848000D02*
X160782000Y-95873000D01*
X176137000Y-93853000D02*
X177292000Y-93853000D01*
X190741300Y-67818000D02*
X192532000Y-67818000D01*
X190337000Y-81318000D02*
X190337000Y-77688000D01*
X190337000Y-77688000D02*
X189992000Y-77343000D01*
X190337000Y-73368000D02*
X190337000Y-76998000D01*
X190337000Y-76998000D02*
X189992000Y-77343000D01*
X161417000Y-104533000D02*
X160262000Y-104533000D01*
X160262000Y-104533000D02*
X160147000Y-104648000D01*
X163862000Y-104083000D02*
X161867000Y-104083000D01*
X161867000Y-104083000D02*
X161417000Y-104533000D01*
X170307000Y-106033000D02*
X171057000Y-106033000D01*
X171057000Y-106033000D02*
X171577000Y-106553000D01*
X167862000Y-106483000D02*
X169857000Y-106483000D01*
X169857000Y-106483000D02*
X170307000Y-106033000D01*
X175320000Y-97802647D02*
X175320798Y-97803445D01*
X175320000Y-96210000D02*
X175320000Y-97802647D01*
X173788000Y-95688000D02*
X174310000Y-96210000D01*
X174310000Y-96210000D02*
X175320000Y-96210000D01*
X172017000Y-95688000D02*
X173788000Y-95688000D01*
X145000000Y-98810000D02*
X145000000Y-100080000D01*
X145000000Y-100080000D02*
X145080000Y-100000000D01*
X145080000Y-100000000D02*
X147200000Y-100000000D01*
X162457000Y-88138000D02*
X161417000Y-88138000D01*
X163957000Y-76823000D02*
X162802000Y-76823000D01*
X162802000Y-76823000D02*
X162687000Y-76708000D01*
X166337000Y-76708000D02*
X164072000Y-76708000D01*
X164072000Y-76708000D02*
X163957000Y-76823000D01*
X160782000Y-94373000D02*
X159627000Y-94373000D01*
X159627000Y-94373000D02*
X159512000Y-94488000D01*
X163517000Y-94088000D02*
X161067000Y-94088000D01*
X161067000Y-94088000D02*
X160782000Y-94373000D01*
X174637000Y-93853000D02*
X174637000Y-93333000D01*
X174637000Y-93333000D02*
X175387000Y-92583000D01*
X172017000Y-94088000D02*
X174402000Y-94088000D01*
X174402000Y-94088000D02*
X174637000Y-93853000D01*
X185432000Y-67818000D02*
X183642000Y-67818000D01*
X163862000Y-106483000D02*
X161867000Y-106483000D01*
X161867000Y-106483000D02*
X161417000Y-106033000D01*
X165767000Y-98738000D02*
X165767000Y-104878000D01*
X165767000Y-104878000D02*
X164162000Y-106483000D01*
X164162000Y-106483000D02*
X163862000Y-106483000D01*
X167862000Y-104083000D02*
X169857000Y-104083000D01*
X169857000Y-104083000D02*
X170307000Y-104533000D01*
X166567000Y-98738000D02*
X166567000Y-103088000D01*
X166567000Y-103088000D02*
X167562000Y-104083000D01*
X167562000Y-104083000D02*
X167862000Y-104083000D01*
X186932000Y-67818000D02*
X189242700Y-67818000D01*
X174117000Y-92583000D02*
X174466999Y-92233001D01*
X174466999Y-92233001D02*
X174466999Y-89492996D01*
X174466999Y-89492996D02*
X174382003Y-89408000D01*
X170567000Y-98738000D02*
X170567000Y-99193000D01*
X170567000Y-99193000D02*
X171577000Y-100203000D01*
X189357000Y-123178000D02*
X179737001Y-123178000D01*
X177264203Y-120705202D02*
X162185202Y-120705202D01*
X179737001Y-123178000D02*
X177264203Y-120705202D01*
X169386999Y-94773001D02*
X169037000Y-95123000D01*
X170567000Y-90238000D02*
X170567000Y-93007582D01*
X169898478Y-93676104D02*
X169898478Y-94261522D01*
X170567000Y-93007582D02*
X169898478Y-93676104D01*
X169898478Y-94261522D02*
X169386999Y-94773001D01*
X172017000Y-96488000D02*
X170847000Y-96488000D01*
X170847000Y-96488000D02*
X170307000Y-97028000D01*
X189357000Y-115443000D02*
X188556002Y-115443000D01*
X165767000Y-91288000D02*
X166513362Y-92034362D01*
X165767000Y-90238000D02*
X165767000Y-91288000D01*
X168341366Y-92034362D02*
X168836340Y-92034362D01*
X166513362Y-92034362D02*
X168341366Y-92034362D01*
X193247266Y-116151571D02*
X193597265Y-115801572D01*
X192779553Y-116619284D02*
X193247266Y-116151571D01*
X187080716Y-116619284D02*
X192779553Y-116619284D01*
X186817000Y-116883000D02*
X187080716Y-116619284D01*
X186817000Y-117983000D02*
X186817000Y-116883000D01*
X163957000Y-88138000D02*
X164717000Y-88138000D01*
X164717000Y-88138000D02*
X165767000Y-89188000D01*
X165767000Y-89188000D02*
X165767000Y-90238000D01*
X185837000Y-81318000D02*
X185837000Y-73368000D01*
X189357000Y-91313000D02*
X189357000Y-83938000D01*
X189357000Y-83938000D02*
X186737000Y-81318000D01*
X186737000Y-81318000D02*
X185837000Y-81318000D01*
X169037188Y-93326581D02*
X169223476Y-93512869D01*
X167169171Y-93326581D02*
X169037188Y-93326581D01*
X163517000Y-91688000D02*
X165530590Y-91688000D01*
X165530590Y-91688000D02*
X167169171Y-93326581D01*
X159091999Y-122848001D02*
X159091999Y-122474786D01*
X158242000Y-123698000D02*
X159091999Y-122848001D01*
X159091999Y-122474786D02*
X166123785Y-115443000D01*
X166123785Y-115443000D02*
X185614919Y-115443000D01*
X185614919Y-115443000D02*
X186817000Y-115443000D01*
X163517000Y-92488000D02*
X165694180Y-92488000D01*
X165694180Y-92488000D02*
X167214569Y-94008389D01*
X167214569Y-94008389D02*
X167977183Y-94008389D01*
X167977183Y-94008389D02*
X168472157Y-94008389D01*
X160850000Y-92490000D02*
X163515000Y-92490000D01*
X163515000Y-92490000D02*
X163517000Y-92488000D01*
X158880000Y-108220000D02*
X158880000Y-99510000D01*
X158880000Y-99510000D02*
X158870000Y-99500000D01*
X156390000Y-115210000D02*
X158930000Y-112670000D01*
X158930000Y-112670000D02*
X158930000Y-109730000D01*
X158930000Y-109730000D02*
X158880000Y-109680000D01*
X155702000Y-123698000D02*
X155702000Y-117688000D01*
X155702000Y-117688000D02*
X156500000Y-116890000D01*
X165892569Y-108030000D02*
X165730477Y-108192092D01*
X171150000Y-108030000D02*
X165892569Y-108030000D01*
X167367000Y-98738000D02*
X167367000Y-102343000D01*
X167367000Y-102343000D02*
X167767000Y-102743000D01*
X167767000Y-102743000D02*
X170322000Y-102743000D01*
X170322000Y-102743000D02*
X170942000Y-102743000D01*
X184912000Y-110363000D02*
X186817000Y-110363000D01*
X164662000Y-95688000D02*
X165227000Y-95123000D01*
X163517000Y-95688000D02*
X164662000Y-95688000D01*
X165186999Y-79248000D02*
X165186999Y-79128001D01*
X165186999Y-79128001D02*
X166337000Y-77978000D01*
X166497000Y-78138000D02*
X166337000Y-77978000D01*
X166260590Y-95758000D02*
X167132000Y-95758000D01*
X163517000Y-97288000D02*
X164730590Y-97288000D01*
X164730590Y-97288000D02*
X166260590Y-95758000D01*
X122800000Y-113000000D02*
X149600000Y-113000000D01*
X158712000Y-97288000D02*
X163517000Y-97288000D01*
X155400000Y-100600000D02*
X158712000Y-97288000D01*
X155400000Y-107200000D02*
X155400000Y-100600000D01*
X149600000Y-113000000D02*
X155400000Y-107200000D01*
X110000000Y-107000000D02*
X110000000Y-111600000D01*
X110170000Y-106430000D02*
X110000000Y-106600000D01*
X110000000Y-106600000D02*
X110000000Y-107000000D01*
X113730000Y-106430000D02*
X110170000Y-106430000D01*
X111400000Y-113000000D02*
X122800000Y-113000000D01*
X122800000Y-113000000D02*
X123000000Y-113000000D01*
X110000000Y-111600000D02*
X111400000Y-113000000D01*
X165902001Y-95447001D02*
X165902001Y-93893001D01*
X164861002Y-96488000D02*
X165902001Y-95447001D01*
X163517000Y-96488000D02*
X164861002Y-96488000D01*
X165902001Y-93893001D02*
X165862000Y-93853000D01*
X165862000Y-72898000D02*
X165862000Y-73693000D01*
X165862000Y-73693000D02*
X166337000Y-74168000D01*
X164967000Y-98738000D02*
X164967000Y-97688000D01*
X164967000Y-97688000D02*
X165627000Y-97028000D01*
X165627000Y-97028000D02*
X166497000Y-97028000D01*
X123400000Y-113600000D02*
X150000000Y-113600000D01*
X109400000Y-112000000D02*
X111000000Y-113600000D01*
X111000000Y-113600000D02*
X123400000Y-113600000D01*
X113730000Y-105160000D02*
X109840000Y-105160000D01*
X109400000Y-105600000D02*
X109400000Y-107000000D01*
X109840000Y-105160000D02*
X109400000Y-105600000D01*
X109400000Y-107000000D02*
X109400000Y-112000000D01*
X158800000Y-98600000D02*
X164829000Y-98600000D01*
X158000000Y-99400000D02*
X158800000Y-98600000D01*
X156200000Y-101200000D02*
X158000000Y-99400000D01*
X156200000Y-107400000D02*
X156200000Y-101200000D01*
X150000000Y-113600000D02*
X156200000Y-107400000D01*
X164829000Y-98600000D02*
X164967000Y-98738000D01*
X168200000Y-85600000D02*
X168000000Y-85600000D01*
X169000000Y-84800000D02*
X168200000Y-85600000D01*
X159800000Y-85400000D02*
X167800000Y-85400000D01*
X108800000Y-112400000D02*
X110600000Y-114200000D01*
X110600000Y-114200000D02*
X125600000Y-114200000D01*
X108800000Y-107000000D02*
X108800000Y-105000000D01*
X108910000Y-103890000D02*
X108800000Y-104000000D01*
X108800000Y-104000000D02*
X108800000Y-105000000D01*
X113730000Y-103890000D02*
X108910000Y-103890000D01*
X108800000Y-107000000D02*
X108800000Y-112400000D01*
X157000000Y-88200000D02*
X159800000Y-85400000D01*
X157000000Y-96800000D02*
X157000000Y-88200000D01*
X156800000Y-97000000D02*
X157000000Y-96800000D01*
X157200000Y-107400000D02*
X157200000Y-101800000D01*
X150400000Y-114200000D02*
X157200000Y-107400000D01*
X125600000Y-114200000D02*
X150400000Y-114200000D01*
X168167000Y-85767000D02*
X168167000Y-90238000D01*
X167800000Y-85400000D02*
X168000000Y-85600000D01*
X168000000Y-85600000D02*
X168167000Y-85767000D01*
X174645254Y-74824746D02*
X174733048Y-74824746D01*
X174733048Y-74824746D02*
X176023397Y-73534397D01*
X171737000Y-76708000D02*
X172762000Y-76708000D01*
X172762000Y-76708000D02*
X174645254Y-74824746D01*
X171737000Y-76708000D02*
X172212000Y-76708000D01*
X171737000Y-76708000D02*
X171262000Y-76708000D01*
X171262000Y-76708000D02*
X169787000Y-78183000D01*
X169787000Y-78183000D02*
X169787000Y-79818000D01*
X169787000Y-79818000D02*
X169787000Y-80518000D01*
X175387000Y-72898000D02*
X174157000Y-74128000D01*
X174157000Y-74128000D02*
X174157000Y-74168000D01*
X173482000Y-74803000D02*
X173522000Y-74803000D01*
X173522000Y-74803000D02*
X174157000Y-74168000D01*
X171737000Y-75438000D02*
X172847000Y-75438000D01*
X172847000Y-75438000D02*
X173482000Y-74803000D01*
X171737000Y-75438000D02*
X172212000Y-75438000D01*
X171737000Y-75438000D02*
X171262000Y-75438000D01*
X171262000Y-75438000D02*
X168287000Y-78413000D01*
X168287000Y-78413000D02*
X168287000Y-79818000D01*
X168287000Y-79818000D02*
X168287000Y-80518000D01*
X172017000Y-97288000D02*
X172017000Y-98493000D01*
X172017000Y-98493000D02*
X171577000Y-98933000D01*
X189357000Y-121158000D02*
X189357000Y-121678000D01*
X189357000Y-121043000D02*
X189357000Y-117983000D01*
X172017000Y-92488000D02*
X173067000Y-92488000D01*
X173067000Y-92488000D02*
X173482000Y-92073000D01*
X173482000Y-92073000D02*
X173482000Y-89408000D01*
X172708000Y-72898000D02*
X172457000Y-72898000D01*
X172457000Y-72898000D02*
X171737000Y-73618000D01*
X171737000Y-73618000D02*
X171737000Y-74168000D01*
X173482000Y-72898000D02*
X172708000Y-72898000D01*
X172708000Y-72898000D02*
X172200000Y-72390000D01*
X170200000Y-86400000D02*
X168967000Y-87633000D01*
X180600000Y-88600000D02*
X178400000Y-86400000D01*
X178400000Y-86400000D02*
X170200000Y-86400000D01*
X107920000Y-100080000D02*
X107000000Y-101000000D01*
X180600000Y-100841446D02*
X180600000Y-88600000D01*
X165937385Y-114992989D02*
X166448457Y-114992989D01*
X166448457Y-114992989D02*
X180600000Y-100841446D01*
X109800000Y-116200000D02*
X164730375Y-116200000D01*
X164730375Y-116200000D02*
X165937385Y-114992989D01*
X107000000Y-101000000D02*
X107000000Y-113400000D01*
X168967000Y-87633000D02*
X168967000Y-89188000D01*
X168967000Y-89188000D02*
X168967000Y-90238000D01*
X107000000Y-113400000D02*
X109800000Y-116200000D01*
X112000000Y-64400000D02*
X128000000Y-64400000D01*
X108000000Y-71400000D02*
X108000000Y-71200000D01*
X108000000Y-71200000D02*
X107800000Y-71000000D01*
X107800000Y-71000000D02*
X107800000Y-68600000D01*
X107800000Y-68600000D02*
X112000000Y-64400000D01*
X129032000Y-63368000D02*
X129032000Y-60833000D01*
X128000000Y-64400000D02*
X129032000Y-63368000D01*
X108000000Y-100080000D02*
X107920000Y-100080000D01*
X108000000Y-100080000D02*
X113730000Y-100080000D01*
X119600000Y-115400000D02*
X151800000Y-115400000D01*
X166567000Y-86367000D02*
X166567000Y-90238000D01*
X166400000Y-86200000D02*
X166567000Y-86367000D01*
X161200000Y-86200000D02*
X166400000Y-86200000D01*
X158000000Y-89400000D02*
X161200000Y-86200000D01*
X158000000Y-96800000D02*
X158000000Y-89400000D01*
X157000000Y-110200000D02*
X157800000Y-110200000D01*
X151800000Y-115400000D02*
X157000000Y-110200000D01*
X107600000Y-107000000D02*
X107600000Y-113200000D01*
X107600000Y-104000000D02*
X107600000Y-101800000D01*
X108050000Y-101350000D02*
X107600000Y-101800000D01*
X108600000Y-101350000D02*
X108050000Y-101350000D01*
X107600000Y-107000000D02*
X107600000Y-104000000D01*
X109800000Y-115400000D02*
X119600000Y-115400000D01*
X119600000Y-115400000D02*
X119800000Y-115400000D01*
X107600000Y-113200000D02*
X109800000Y-115400000D01*
X131572000Y-65428000D02*
X131572000Y-60833000D01*
X130800000Y-66200000D02*
X131572000Y-65428000D01*
X112200000Y-66200000D02*
X130800000Y-66200000D01*
X108600000Y-69800000D02*
X112200000Y-66200000D01*
X108600000Y-101350000D02*
X113730000Y-101350000D01*
X148000000Y-114800000D02*
X151000000Y-114800000D01*
X172017000Y-89183000D02*
X172017000Y-91688000D01*
X174200000Y-87000000D02*
X172017000Y-89183000D01*
X178200000Y-87000000D02*
X174200000Y-87000000D01*
X180000000Y-88800000D02*
X178200000Y-87000000D01*
X180000000Y-92800000D02*
X180000000Y-88800000D01*
X180000000Y-100800000D02*
X180000000Y-92800000D01*
X171800000Y-109000000D02*
X180000000Y-100800000D01*
X156800000Y-109000000D02*
X171800000Y-109000000D01*
X151000000Y-114800000D02*
X156800000Y-109000000D01*
X108200000Y-106800000D02*
X108200000Y-113000000D01*
X110000000Y-114800000D02*
X148000000Y-114800000D01*
X148000000Y-114800000D02*
X148200000Y-114800000D01*
X108200000Y-113000000D02*
X110000000Y-114800000D01*
X109780000Y-102620000D02*
X109600000Y-102800000D01*
X110000000Y-102620000D02*
X109780000Y-102620000D01*
X131572000Y-55372000D02*
X131572000Y-58293000D01*
X129000000Y-52800000D02*
X131572000Y-55372000D01*
X126200000Y-52800000D02*
X129000000Y-52800000D01*
X126000000Y-52600000D02*
X126200000Y-52800000D01*
X108200000Y-107000000D02*
X108200000Y-106800000D01*
X108200000Y-106800000D02*
X108200000Y-104000000D01*
X108380000Y-102620000D02*
X108200000Y-102800000D01*
X108200000Y-102800000D02*
X108200000Y-104000000D01*
X108380000Y-102620000D02*
X110000000Y-102620000D01*
X110000000Y-102620000D02*
X113730000Y-102620000D01*
X148500000Y-69500000D02*
X148500000Y-103890000D01*
X141250000Y-62250000D02*
X148500000Y-69500000D01*
X139500000Y-62250000D02*
X141250000Y-62250000D01*
X145000000Y-103890000D02*
X148500000Y-103890000D01*
X148500000Y-103890000D02*
X153710000Y-103890000D01*
X153710000Y-103890000D02*
X154600000Y-103000000D01*
X154600000Y-103000000D02*
X154600000Y-100000000D01*
X154600000Y-100000000D02*
X156000000Y-98600000D01*
X156000000Y-98600000D02*
X156000000Y-88200000D01*
X156000000Y-88200000D02*
X160800000Y-83400000D01*
X160800000Y-83400000D02*
X169200000Y-83400000D01*
X169200000Y-83400000D02*
X170400000Y-84600000D01*
X170400000Y-84600000D02*
X170400000Y-85200000D01*
X170200000Y-87400000D02*
X169767000Y-87833000D01*
X169767000Y-87833000D02*
X169767000Y-90238000D01*
X143000000Y-61000000D02*
X143000000Y-63000000D01*
X129032000Y-56968000D02*
X130000000Y-56000000D01*
X133000000Y-56000000D02*
X142000000Y-56000000D01*
X142000000Y-56000000D02*
X143000000Y-57000000D01*
X143000000Y-57000000D02*
X143000000Y-61000000D01*
X129032000Y-58293000D02*
X129032000Y-56968000D01*
X149250000Y-69250000D02*
X149250000Y-102750000D01*
X143000000Y-63000000D02*
X149250000Y-69250000D01*
X141400000Y-106600000D02*
X141400000Y-108000000D01*
X142840000Y-105160000D02*
X141400000Y-106600000D01*
X143730000Y-105160000D02*
X142840000Y-105160000D01*
X159488000Y-93288000D02*
X163517000Y-93288000D01*
X159200000Y-93000000D02*
X159488000Y-93288000D01*
X147600000Y-108400000D02*
X149600000Y-106400000D01*
X141800000Y-108400000D02*
X147600000Y-108400000D01*
X141400000Y-108000000D02*
X141800000Y-108400000D01*
M02*
