G04 #@! TF.FileFunction,Copper,L4,Bot,Signal*
%FSLAX46Y46*%
G04 Gerber Fmt 4.6, Leading zero omitted, Abs format (unit mm)*
G04 Created by KiCad (PCBNEW 4.0.6) date Monday, August 21, 2017 'PMt' 07:14:59 PM*
%MOMM*%
%LPD*%
G01*
G04 APERTURE LIST*
%ADD10C,0.100000*%
%ADD11R,1.700000X1.700000*%
%ADD12O,1.700000X1.700000*%
%ADD13R,1.727200X1.727200*%
%ADD14O,1.727200X1.727200*%
%ADD15R,1.000000X1.000000*%
%ADD16O,1.000000X1.000000*%
%ADD17C,4.400000*%
%ADD18C,0.700000*%
%ADD19C,0.250000*%
G04 APERTURE END LIST*
D10*
D11*
X155702000Y-123698000D03*
D12*
X155702000Y-126238000D03*
X158242000Y-123698000D03*
X158242000Y-126238000D03*
X160782000Y-123698000D03*
X160782000Y-126238000D03*
X163322000Y-123698000D03*
X163322000Y-126238000D03*
X165862000Y-123698000D03*
X165862000Y-126238000D03*
X168402000Y-123698000D03*
X168402000Y-126238000D03*
X170942000Y-123698000D03*
X170942000Y-126238000D03*
X173482000Y-123698000D03*
X173482000Y-126238000D03*
X176022000Y-123698000D03*
X176022000Y-126238000D03*
X178562000Y-123698000D03*
X178562000Y-126238000D03*
D11*
X155702000Y-58293000D03*
D12*
X155702000Y-60833000D03*
X158242000Y-58293000D03*
X158242000Y-60833000D03*
X160782000Y-58293000D03*
X160782000Y-60833000D03*
X163322000Y-58293000D03*
X163322000Y-60833000D03*
X165862000Y-58293000D03*
X165862000Y-60833000D03*
X168402000Y-58293000D03*
X168402000Y-60833000D03*
X170942000Y-58293000D03*
X170942000Y-60833000D03*
X173482000Y-58293000D03*
X173482000Y-60833000D03*
X176022000Y-58293000D03*
X176022000Y-60833000D03*
X178562000Y-58293000D03*
X178562000Y-60833000D03*
D13*
X189357000Y-96393000D03*
D14*
X186817000Y-96393000D03*
X189357000Y-93853000D03*
X186817000Y-93853000D03*
X189357000Y-91313000D03*
X186817000Y-91313000D03*
D11*
X186817000Y-117983000D03*
D12*
X189357000Y-117983000D03*
X186817000Y-115443000D03*
X189357000Y-115443000D03*
X186817000Y-112903000D03*
X189357000Y-112903000D03*
X186817000Y-110363000D03*
X189357000Y-110363000D03*
D11*
X118872000Y-58293000D03*
D12*
X118872000Y-60833000D03*
X121412000Y-58293000D03*
X121412000Y-60833000D03*
X123952000Y-58293000D03*
X123952000Y-60833000D03*
X126492000Y-58293000D03*
X126492000Y-60833000D03*
X129032000Y-58293000D03*
X129032000Y-60833000D03*
X131572000Y-58293000D03*
X131572000Y-60833000D03*
X134112000Y-58293000D03*
X134112000Y-60833000D03*
X136652000Y-58293000D03*
X136652000Y-60833000D03*
D15*
X115000000Y-95000000D03*
D16*
X113730000Y-95000000D03*
X115000000Y-96270000D03*
X113730000Y-96270000D03*
X115000000Y-97540000D03*
X113730000Y-97540000D03*
X115000000Y-98810000D03*
X113730000Y-98810000D03*
X115000000Y-100080000D03*
X113730000Y-100080000D03*
X115000000Y-101350000D03*
X113730000Y-101350000D03*
X115000000Y-102620000D03*
X113730000Y-102620000D03*
X115000000Y-103890000D03*
X113730000Y-103890000D03*
X115000000Y-105160000D03*
X113730000Y-105160000D03*
X115000000Y-106430000D03*
X113730000Y-106430000D03*
D15*
X145000000Y-95000000D03*
D16*
X143730000Y-95000000D03*
X145000000Y-96270000D03*
X143730000Y-96270000D03*
X145000000Y-97540000D03*
X143730000Y-97540000D03*
X145000000Y-98810000D03*
X143730000Y-98810000D03*
X145000000Y-100080000D03*
X143730000Y-100080000D03*
X145000000Y-101350000D03*
X143730000Y-101350000D03*
X145000000Y-102620000D03*
X143730000Y-102620000D03*
X145000000Y-103890000D03*
X143730000Y-103890000D03*
X145000000Y-105160000D03*
X143730000Y-105160000D03*
X145000000Y-106430000D03*
X143730000Y-106430000D03*
D17*
X192000000Y-54300000D03*
X192000000Y-129700000D03*
X106000000Y-129700000D03*
X106000000Y-54300000D03*
D18*
X178309229Y-96224766D03*
X178296946Y-94905103D03*
X118000000Y-106600000D03*
X141200000Y-94600000D03*
X117400000Y-94600000D03*
X169672000Y-72263000D03*
X162687000Y-75438000D03*
X159512000Y-95758000D03*
X177292000Y-93853000D03*
X192532000Y-67818000D03*
X189992000Y-77343000D03*
X160147000Y-104648000D03*
X171577000Y-106553000D03*
X175320798Y-97803445D03*
X147200000Y-100000000D03*
X161417000Y-88138000D03*
X162687000Y-76708000D03*
X159512000Y-94488000D03*
X175387000Y-92583000D03*
X183642000Y-67818000D03*
X174382003Y-89408000D03*
X174117000Y-92583000D03*
X171577000Y-100203000D03*
X162185202Y-120705202D03*
X169037000Y-95123000D03*
X170307000Y-97028000D03*
X168836340Y-92034362D03*
X193597265Y-115801572D03*
X169223476Y-93512869D03*
X168472157Y-94008389D03*
X160850000Y-92490000D03*
X158870000Y-99500000D03*
X158880000Y-108220000D03*
X158880000Y-109680000D03*
X156390000Y-115210000D03*
X156500000Y-116890000D03*
X165730477Y-108192092D03*
X171150000Y-108030000D03*
X184912000Y-110363000D03*
X170942000Y-102743000D03*
X165227000Y-95123000D03*
X165186999Y-79248000D03*
X167132000Y-95758000D03*
X165862000Y-72898000D03*
X165862000Y-93853000D03*
X166497000Y-97028000D03*
X169000000Y-84800000D03*
X156800000Y-97000000D03*
X157200000Y-101800000D03*
X176023397Y-73534397D03*
X175387000Y-72898000D03*
X171577000Y-98933000D03*
X173482000Y-89408000D03*
X173482000Y-72898000D03*
X108000000Y-71400000D03*
X107920000Y-100080000D03*
X158000000Y-96800000D03*
X157800000Y-110200000D03*
X108600000Y-69800000D03*
X108600000Y-101350000D03*
X109600000Y-102800000D03*
X126000000Y-52600000D03*
X139500000Y-62250000D03*
X170400000Y-85200000D03*
X170200000Y-87400000D03*
X130000000Y-56000000D03*
X133000000Y-56000000D03*
X149250000Y-102750000D03*
X159200000Y-93000000D03*
X149600000Y-106400000D03*
D19*
X118000000Y-106600000D02*
X117800000Y-106400000D01*
X174382003Y-71258003D02*
X169577001Y-66453001D01*
X169577001Y-66453001D02*
X169577001Y-59468001D01*
X169577001Y-59468001D02*
X169251999Y-59142999D01*
X169251999Y-59142999D02*
X168402000Y-58293000D01*
X174382003Y-89408000D02*
X174382003Y-71258003D01*
X174382003Y-89408000D02*
X174382003Y-88913026D01*
X171577000Y-100203000D02*
X172327078Y-99452922D01*
X172327078Y-99452922D02*
X172327078Y-94372922D01*
X172327078Y-94372922D02*
X174117000Y-92583000D01*
X160510000Y-118890000D02*
X159159224Y-118890000D01*
X159159224Y-118890000D02*
X156972000Y-121077224D01*
X156972000Y-124968000D02*
X155702000Y-126238000D01*
X156972000Y-121077224D02*
X156972000Y-124968000D01*
X162185202Y-120705202D02*
X160510000Y-119030000D01*
X160510000Y-119030000D02*
X160510000Y-118890000D01*
X169037000Y-95123000D02*
X169514306Y-95600306D01*
X169514306Y-96874696D02*
X169037000Y-97352002D01*
X169514306Y-95600306D02*
X169514306Y-96874696D01*
X169037000Y-97352002D02*
X169037000Y-116629164D01*
X169037000Y-116629164D02*
X163143165Y-122522999D01*
X163143165Y-122522999D02*
X162757999Y-122522999D01*
X162757999Y-122522999D02*
X162146999Y-123133999D01*
X162146999Y-123133999D02*
X162146999Y-123519165D01*
X162146999Y-123519165D02*
X161957001Y-123709163D01*
X161957001Y-123709163D02*
X161957001Y-125062999D01*
X161957001Y-125062999D02*
X161631999Y-125388001D01*
X161631999Y-125388001D02*
X160782000Y-126238000D01*
X169672000Y-97663000D02*
X169672000Y-120688998D01*
X169672000Y-120688998D02*
X167037001Y-123323997D01*
X167037001Y-123323997D02*
X167037001Y-125062999D01*
X167037001Y-125062999D02*
X166711999Y-125388001D01*
X166711999Y-125388001D02*
X165862000Y-126238000D01*
X170307000Y-97028000D02*
X169672000Y-97663000D01*
X186014592Y-122428000D02*
X177292000Y-122428000D01*
X177292000Y-122428000D02*
X176022000Y-123698000D01*
X188087000Y-120355592D02*
X186014592Y-122428000D01*
X189357000Y-112903000D02*
X189357000Y-113703998D01*
X189357000Y-113703998D02*
X188087000Y-114973998D01*
X188087000Y-114973998D02*
X188087000Y-120355592D01*
X189357000Y-110363000D02*
X190982011Y-111988011D01*
X190982011Y-111988011D02*
X190982011Y-118733401D01*
X190982011Y-118733401D02*
X184652413Y-125062999D01*
X184652413Y-125062999D02*
X177197001Y-125062999D01*
X177197001Y-125062999D02*
X176871999Y-125388001D01*
X176871999Y-125388001D02*
X176022000Y-126238000D01*
X189357000Y-115443000D02*
X190532001Y-116618001D01*
X190532001Y-116618001D02*
X190532001Y-118547001D01*
X190532001Y-118547001D02*
X185381002Y-123698000D01*
X185381002Y-123698000D02*
X179764081Y-123698000D01*
X179764081Y-123698000D02*
X178562000Y-123698000D01*
X169186339Y-91684363D02*
X168836340Y-92034362D01*
X170746303Y-90124399D02*
X169186339Y-91684363D01*
X188168399Y-90124399D02*
X170746303Y-90124399D01*
X189357000Y-91313000D02*
X188168399Y-90124399D01*
X189357000Y-91313000D02*
X193597265Y-95553265D01*
X193597265Y-115306598D02*
X193597265Y-115801572D01*
X193597265Y-95553265D02*
X193597265Y-115306598D01*
X190545601Y-96317999D02*
X190545601Y-93282471D01*
X190545601Y-93282471D02*
X189927529Y-92664399D01*
X189927529Y-92664399D02*
X183887607Y-92664399D01*
X183887607Y-92664399D02*
X182471210Y-91248002D01*
X169573475Y-93162870D02*
X169223476Y-93512869D01*
X171488343Y-91248002D02*
X169573475Y-93162870D01*
X182471210Y-91248002D02*
X171488343Y-91248002D01*
X189357000Y-96393000D02*
X190470600Y-96393000D01*
X190470600Y-96393000D02*
X190545601Y-96317999D01*
X186817000Y-115443000D02*
X188087000Y-114173000D01*
X188087000Y-114173000D02*
X188087000Y-109893998D01*
X188087000Y-109893998D02*
X189357000Y-108623998D01*
X189357000Y-108623998D02*
X189357000Y-97506600D01*
X189357000Y-97506600D02*
X189357000Y-96393000D01*
X168822156Y-94358388D02*
X168472157Y-94008389D01*
X169376959Y-94358388D02*
X168822156Y-94358388D01*
X171827348Y-91907999D02*
X169376959Y-94358388D01*
X185628399Y-95041601D02*
X182494797Y-91907999D01*
X182494797Y-91907999D02*
X171827348Y-91907999D01*
X158870000Y-99500000D02*
X160850000Y-97520000D01*
X160850000Y-97520000D02*
X160850000Y-92490000D01*
X158880000Y-109680000D02*
X158880000Y-108220000D01*
X156500000Y-116890000D02*
X156500000Y-115320000D01*
X156500000Y-115320000D02*
X156390000Y-115210000D01*
X186817000Y-112903000D02*
X186817000Y-112102002D01*
X185953401Y-94716599D02*
X186817000Y-93853000D01*
X186817000Y-112102002D02*
X185628399Y-110913401D01*
X185628399Y-110913401D02*
X185628399Y-95041601D01*
X185628399Y-95041601D02*
X185953401Y-94716599D01*
X158242000Y-126238000D02*
X157066999Y-127413001D01*
X154526999Y-126802001D02*
X154526999Y-120309512D01*
X155137999Y-127413001D02*
X154526999Y-126802001D01*
X165730477Y-108687066D02*
X165730477Y-108192092D01*
X165730477Y-109106034D02*
X165730477Y-108687066D01*
X154526999Y-120309512D02*
X165730477Y-109106034D01*
X157066999Y-127413001D02*
X155137999Y-127413001D01*
X170942000Y-102743000D02*
X174030000Y-102743000D01*
X174030000Y-102743000D02*
X177292000Y-102743000D01*
X171150000Y-108030000D02*
X174030000Y-105150000D01*
X174030000Y-105150000D02*
X174030000Y-102743000D01*
X177292000Y-102743000D02*
X184912000Y-110363000D01*
X186817000Y-110363000D02*
X188087000Y-109093000D01*
X188087000Y-109093000D02*
X188087000Y-95123000D01*
X188087000Y-95123000D02*
X188493401Y-94716599D01*
X188493401Y-94716599D02*
X189357000Y-93853000D01*
X165227000Y-95123000D02*
X165227000Y-94217002D01*
X165227000Y-94217002D02*
X165186999Y-94177001D01*
X165186999Y-94177001D02*
X165186999Y-79248000D01*
X165186999Y-79248000D02*
X165186999Y-69763001D01*
X160782028Y-65358030D02*
X121021617Y-65358029D01*
X121021617Y-65358029D02*
X117246989Y-61583401D01*
X117246989Y-61583401D02*
X117246989Y-58818011D01*
X117246989Y-58818011D02*
X117772000Y-58293000D01*
X117772000Y-58293000D02*
X118872000Y-58293000D01*
X165186999Y-69763001D02*
X160782028Y-65358030D01*
X167132000Y-70359410D02*
X161230600Y-64458010D01*
X161230600Y-64458010D02*
X122497010Y-64458010D01*
X122497010Y-64458010D02*
X119721999Y-61682999D01*
X119721999Y-61682999D02*
X118872000Y-60833000D01*
X167132000Y-95758000D02*
X167132000Y-70359410D01*
X165862000Y-72898000D02*
X165862000Y-69725820D01*
X165862000Y-93853000D02*
X165862000Y-72898000D01*
X165862000Y-69725820D02*
X161044200Y-64908020D01*
X161044200Y-64908020D02*
X121208018Y-64908020D01*
X121208018Y-64908020D02*
X117696999Y-61397001D01*
X117696999Y-61397001D02*
X117696999Y-60268999D01*
X117696999Y-60268999D02*
X118497997Y-59468001D01*
X118497997Y-59468001D02*
X120236999Y-59468001D01*
X120236999Y-59468001D02*
X120562001Y-59142999D01*
X120562001Y-59142999D02*
X121412000Y-58293000D01*
X124587000Y-64008000D02*
X122261999Y-61682999D01*
X122261999Y-61682999D02*
X121412000Y-60833000D01*
X167807001Y-96212973D02*
X167807001Y-94342235D01*
X166991974Y-97028000D02*
X167807001Y-96212973D01*
X166497000Y-97028000D02*
X166991974Y-97028000D01*
X167719378Y-70310378D02*
X161417000Y-64008000D01*
X161417000Y-64008000D02*
X124587000Y-64008000D01*
X167719378Y-94254612D02*
X167719378Y-70310378D01*
X167807001Y-94342235D02*
X167719378Y-94254612D01*
X168482001Y-70436591D02*
X168482001Y-84282001D01*
X123952000Y-60833000D02*
X126492000Y-63373000D01*
X161418410Y-63373000D02*
X126492000Y-63373000D01*
X168482001Y-70436591D02*
X161418410Y-63373000D01*
X168482001Y-84282001D02*
X169000000Y-84800000D01*
X157000000Y-97200000D02*
X156800000Y-97000000D01*
X157000000Y-101600000D02*
X157000000Y-97200000D01*
X157200000Y-101800000D02*
X157000000Y-101600000D01*
X176023397Y-73534397D02*
X180147683Y-69410111D01*
X180147683Y-69410111D02*
X180187011Y-69410111D01*
X180187011Y-69410111D02*
X180187011Y-58179009D01*
X180187011Y-58179009D02*
X179126001Y-57117999D01*
X179126001Y-57117999D02*
X177197001Y-57117999D01*
X177197001Y-57117999D02*
X176871999Y-57443001D01*
X176871999Y-57443001D02*
X176022000Y-58293000D01*
X176022000Y-58293000D02*
X175107011Y-57378011D01*
X175107011Y-57378011D02*
X175107010Y-53566600D01*
X175107010Y-53566600D02*
X173033400Y-51492990D01*
X173033400Y-51492990D02*
X130752010Y-51492990D01*
X130752010Y-51492990D02*
X124801999Y-57443001D01*
X124801999Y-57443001D02*
X123952000Y-58293000D01*
X179737001Y-68587999D02*
X179697001Y-68587999D01*
X179697001Y-68587999D02*
X175387000Y-72898000D01*
X179737001Y-68587999D02*
X179737001Y-59468001D01*
X179737001Y-59468001D02*
X179411999Y-59142999D01*
X179411999Y-59142999D02*
X178562000Y-58293000D01*
X132842000Y-51943000D02*
X126492000Y-58293000D01*
X172847000Y-51943000D02*
X132842000Y-51943000D01*
X174657001Y-53753001D02*
X172847000Y-51943000D01*
X178562000Y-58293000D02*
X177386999Y-59468001D01*
X177386999Y-59468001D02*
X175457999Y-59468001D01*
X175457999Y-59468001D02*
X174657001Y-58667003D01*
X174657001Y-58667003D02*
X174657001Y-53753001D01*
X171577000Y-98933000D02*
X170122010Y-100387990D01*
X170122010Y-122612990D02*
X169766999Y-122968001D01*
X170122010Y-100387990D02*
X170122010Y-122612990D01*
X169766999Y-122968001D02*
X169766999Y-125062999D01*
X169766999Y-125062999D02*
X170092001Y-125388001D01*
X170092001Y-125388001D02*
X170942000Y-126238000D01*
X173482000Y-89408000D02*
X173482000Y-72898000D01*
X108000000Y-88600000D02*
X108000000Y-71400000D01*
X108000000Y-100000000D02*
X108000000Y-88600000D01*
X108000000Y-88600000D02*
X108000000Y-88400000D01*
X107920000Y-100080000D02*
X108000000Y-100000000D01*
X158000000Y-110000000D02*
X158000000Y-96800000D01*
X157800000Y-110200000D02*
X158000000Y-110000000D01*
X108800000Y-88600000D02*
X108800000Y-70000000D01*
X108800000Y-70000000D02*
X108600000Y-69800000D01*
X108800000Y-88400000D02*
X108800000Y-88600000D01*
X108800000Y-88600000D02*
X108800000Y-101150000D01*
X108800000Y-101150000D02*
X108600000Y-101350000D01*
X109600000Y-88200000D02*
X109600000Y-59600000D01*
X109600000Y-102800000D02*
X109600000Y-88200000D01*
X116600000Y-52600000D02*
X126000000Y-52600000D01*
X109600000Y-59600000D02*
X116600000Y-52600000D01*
X139000000Y-62750000D02*
X139500000Y-62250000D01*
X134250000Y-62750000D02*
X139000000Y-62750000D01*
X126492000Y-61492000D02*
X127750000Y-62750000D01*
X127750000Y-62750000D02*
X134000000Y-62750000D01*
X134000000Y-62750000D02*
X134250000Y-62750000D01*
X126492000Y-60833000D02*
X126492000Y-61492000D01*
X170400000Y-85200000D02*
X170200000Y-85400000D01*
X170200000Y-85400000D02*
X170200000Y-87400000D01*
X149600000Y-106400000D02*
X149949999Y-106050001D01*
X149949999Y-106050001D02*
X149949999Y-103449999D01*
X149949999Y-103449999D02*
X149599999Y-103099999D01*
X149599999Y-103099999D02*
X149250000Y-102750000D01*
X130000000Y-56000000D02*
X133000000Y-56000000D01*
X156200000Y-93000000D02*
X159200000Y-93000000D01*
X153800000Y-95400000D02*
X156200000Y-93000000D01*
X153800000Y-102200000D02*
X153800000Y-95400000D01*
X149600000Y-106400000D02*
X153800000Y-102200000D01*
M02*
